<svg aria-hidden="true" style="position: absolute; width: 0; height: 0; overflow: hidden;" version="1.1" xmlns="http://www.w3.org/2000/svg" xmlns:xlink="http://www.w3.org/1999/xlink">
<defs>
<symbol id="icon-arrow-right" viewBox="0 0 32 32">
<path d="M19.699 15.276l-7.868-10.62c-0.131-0.177-0.306-0.276-0.487-0.276s-0.356 0.099-0.487 0.276l-0.008 0.012c-0.064 0.086-0.115 0.189-0.149 0.304s-0.053 0.238-0.053 0.363c0 0.125 0.018 0.248 0.053 0.363s0.086 0.218 0.149 0.304l7.409 10-7.409 9.996c-0.064 0.086-0.115 0.189-0.149 0.304s-0.053 0.238-0.053 0.363c0 0.125 0.018 0.248 0.053 0.363s0.086 0.218 0.149 0.304l0.008 0.012c0.131 0.177 0.306 0.276 0.487 0.276s0.356-0.099 0.487-0.276l7.868-10.62c0.069-0.093 0.124-0.206 0.162-0.33s0.057-0.258 0.057-0.394c0-0.135-0.019-0.269-0.057-0.394s-0.093-0.237-0.162-0.33z"></path>
</symbol>
<symbol id="icon-three-leaves-left" viewBox="0 0 32 32">
<path stroke-linejoin="miter" stroke-linecap="butt" stroke-miterlimit="4" stroke-width="0.4156" d="M9.12 16.142c-3.478 5.106 2.351 7.384 11.783 4.526 0 0 0.794-0.322 0.091-0.581s-8.396-9.051-11.874-3.945z"></path>
<path stroke-linejoin="miter" stroke-linecap="butt" stroke-miterlimit="4" stroke-width="0.4156" d="M17.234 30.111c2.504 2.497 4.635-0.558 4.263-6.186 0 0-0.079-0.482-0.327-0.112s-6.44 3.8-3.936 6.298z"></path>
<path stroke-linejoin="miter" stroke-linecap="butt" stroke-miterlimit="4" stroke-width="0.4156" d="M15.536 1.066c-7.881 2.074-4.161 9.624 7.59 15.182 0 0 1.060 0.385 0.598-0.509s-0.307-16.747-8.188-14.673z"></path>
</symbol>
<symbol id="icon-three-leaves-right" viewBox="0 0 32 32">
<path stroke-linejoin="miter" stroke-linecap="butt" stroke-miterlimit="4" stroke-width="0.4267" d="M22.757 16.278c3.39 5.36-2.669 7.494-12.248 4.232 0 0-0.804-0.358-0.073-0.599s8.931-8.994 12.321-3.634z"></path>
<path stroke-linejoin="miter" stroke-linecap="butt" stroke-miterlimit="4" stroke-width="0.4267" d="M13.944 30.328c-2.656 2.475-4.737-0.735-4.158-6.496 0 0 0.098-0.492 0.339-0.104s6.475 4.124 3.819 6.599z"></path>
<path stroke-linejoin="miter" stroke-linecap="butt" stroke-miterlimit="4" stroke-width="0.4267" d="M16.7 0.586c8.014 2.403 3.934 10.020-8.318 15.313 0 0-1.101 0.359-0.596-0.543s0.899-17.173 8.913-14.77z"></path>
</symbol>
<symbol id="icon-runman" viewBox="0 0 32 32">
<path d="M17.987 7.307c1.467 0 2.667-1.2 2.667-2.667s-1.2-2.667-2.667-2.667c-1.467 0-2.667 1.2-2.667 2.667s1.2 2.667 2.667 2.667zM13.76 23.307l0.76-3.333 2.8 2.667v6.667c0 0.733 0.6 1.333 1.333 1.333s1.333-0.6 1.333-1.333v-7.52c0-0.733-0.293-1.427-0.827-1.933l-1.973-1.88 0.8-4c1.503 1.718 3.559 2.855 5.813 3.213 0.8 0.12 1.52-0.52 1.52-1.333 0-0.653-0.48-1.2-1.133-1.307-2.027-0.333-3.707-1.533-4.6-3.107l-1.333-2.133c-0.533-0.8-1.333-1.333-2.267-1.333-0.4 0-0.667 0.133-1.067 0.133l-5.307 2.24c-0.483 0.206-0.895 0.55-1.184 0.989s-0.443 0.952-0.443 1.478v3.16c0 0.733 0.6 1.333 1.333 1.333s1.333-0.6 1.333-1.333v-3.2l2.4-0.933-2.133 10.8-5.227-1.067c-0.72-0.147-1.427 0.32-1.573 1.040v0.053c-0.147 0.72 0.32 1.427 1.040 1.573l5.48 1.093c0.682 0.135 1.389-0.001 1.972-0.379s0.995-0.97 1.148-1.647z"></path>
</symbol>
<symbol id="icon-arrow-up" viewBox="0 0 32 32">
<path stroke-linejoin="miter" stroke-linecap="square" stroke-miterlimit="10" stroke-width="1.4262" d="M7 15.324l9-8.115 9 8.115M16 8.336v16.455"></path>
</symbol>
<symbol id="icon-star-review" viewBox="0 0 32 32">
<path d="M8.156 28.444l2.022-8.742-6.782-5.88 8.96-0.778 3.484-8.244 3.484 8.244 8.96 0.778-6.782 5.88 2.022 8.742-7.684-4.636-7.684 4.636z"></path>
</symbol>
<symbol id="icon-calendar" viewBox="0 0 32 32">
<path d="M10.334 3.333c0-0.265-0.105-0.52-0.293-0.707s-0.442-0.293-0.707-0.293-0.52 0.105-0.707 0.293c-0.188 0.188-0.293 0.442-0.293 0.707v2.107c-1.92 0.153-3.179 0.529-4.104 1.456-0.927 0.925-1.303 2.185-1.457 4.104h26.456c-0.155-1.92-0.531-3.179-1.457-4.104-0.925-0.927-2.185-1.303-4.104-1.457v-2.105c0-0.265-0.105-0.52-0.293-0.707s-0.442-0.293-0.707-0.293c-0.265 0-0.52 0.105-0.707 0.293s-0.293 0.442-0.293 0.707v2.017c-0.887-0.017-1.881-0.017-3-0.017h-5.333c-1.119 0-2.113 0-3 0.017v-2.017z"></path>
<path d="M2.667 16c0-1.119 0-2.113 0.017-3h26.632c0.017 0.887 0.017 1.881 0.017 3v2.667c0 5.028 0 7.543-1.563 9.104-1.561 1.563-4.076 1.563-9.104 1.563h-5.333c-5.028 0-7.543 0-9.104-1.563-1.563-1.561-1.563-4.076-1.563-9.104v-2.667zM22.667 18.667c0.354 0 0.693-0.14 0.943-0.391s0.391-0.589 0.391-0.943c0-0.354-0.14-0.693-0.391-0.943s-0.589-0.391-0.943-0.391c-0.354 0-0.693 0.14-0.943 0.391s-0.39 0.589-0.39 0.943c0 0.354 0.14 0.693 0.39 0.943s0.589 0.391 0.943 0.391zM22.667 24c0.354 0 0.693-0.14 0.943-0.391s0.391-0.589 0.391-0.943c0-0.354-0.14-0.693-0.391-0.943s-0.589-0.391-0.943-0.391c-0.354 0-0.693 0.14-0.943 0.391s-0.39 0.589-0.39 0.943c0 0.354 0.14 0.693 0.39 0.943s0.589 0.391 0.943 0.391zM17.334 17.333c0 0.354-0.14 0.693-0.391 0.943s-0.589 0.391-0.943 0.391c-0.354 0-0.693-0.14-0.943-0.391s-0.391-0.589-0.391-0.943c0-0.354 0.14-0.693 0.391-0.943s0.589-0.391 0.943-0.391c0.354 0 0.693 0.14 0.943 0.391s0.391 0.589 0.391 0.943zM17.334 22.667c0 0.354-0.14 0.693-0.391 0.943s-0.589 0.391-0.943 0.391c-0.354 0-0.693-0.14-0.943-0.391s-0.391-0.589-0.391-0.943c0-0.354 0.14-0.693 0.391-0.943s0.589-0.391 0.943-0.391c0.354 0 0.693 0.14 0.943 0.391s0.391 0.589 0.391 0.943zM9.334 18.667c0.354 0 0.693-0.14 0.943-0.391s0.391-0.589 0.391-0.943c0-0.354-0.14-0.693-0.391-0.943s-0.589-0.391-0.943-0.391c-0.354 0-0.693 0.14-0.943 0.391s-0.391 0.589-0.391 0.943c0 0.354 0.14 0.693 0.391 0.943s0.589 0.391 0.943 0.391zM9.334 24c0.354 0 0.693-0.14 0.943-0.391s0.391-0.589 0.391-0.943c0-0.354-0.14-0.693-0.391-0.943s-0.589-0.391-0.943-0.391c-0.354 0-0.693 0.14-0.943 0.391s-0.391 0.589-0.391 0.943c0 0.354 0.14 0.693 0.391 0.943s0.589 0.391 0.943 0.391z"></path>
</symbol>
<symbol id="icon-stain" viewBox="0 0 32 32">
<path d="M14.665 2.514c0.491-1.191 2.178-1.191 2.669 0l1.37 3.322c0.305 0.739 1.151 1.089 1.889 0.782l3.318-1.38c1.189-0.495 2.382 0.698 1.887 1.887l-1.38 3.318c-0.307 0.738 0.044 1.584 0.782 1.889l3.322 1.37c1.191 0.491 1.191 2.178 0 2.669l-3.322 1.37c-0.739 0.305-1.089 1.151-0.782 1.889l1.38 3.318c0.495 1.189-0.698 2.382-1.887 1.887l-3.318-1.38c-0.738-0.307-1.584 0.044-1.889 0.783l-1.37 3.322c-0.491 1.191-2.178 1.191-2.669 0l-1.37-3.322c-0.305-0.739-1.151-1.089-1.889-0.783l-3.318 1.38c-1.189 0.495-2.382-0.698-1.887-1.887l1.38-3.318c0.307-0.738-0.044-1.584-0.782-1.889l-3.322-1.37c-1.191-0.491-1.191-2.178 0-2.669l3.322-1.37c0.739-0.305 1.089-1.151 0.782-1.889l-1.38-3.318c-0.495-1.189 0.698-2.382 1.887-1.887l3.318 1.38c0.738 0.307 1.584-0.044 1.889-0.782l1.37-3.322z"></path>
</symbol>
<symbol id="icon-laptop" viewBox="0 0 32 32">
<path d="M26.667 24c1.467 0 2.667-1.2 2.667-2.667v-13.333c0-1.467-1.2-2.667-2.667-2.667h-21.333c-1.467 0-2.667 1.2-2.667 2.667v13.333c0 1.467 1.2 2.667 2.667 2.667h-4c-0.733 0-1.333 0.6-1.333 1.333s0.6 1.333 1.333 1.333h29.333c0.733 0 1.333-0.6 1.333-1.333s-0.6-1.333-1.333-1.333h-4zM6.667 8h18.667c0.733 0 1.333 0.6 1.333 1.333v10.667c0 0.733-0.6 1.333-1.333 1.333h-18.667c-0.733 0-1.333-0.6-1.333-1.333v-10.667c0-0.733 0.6-1.333 1.333-1.333z"></path>
</symbol>
<symbol id="icon-alarm-clock" viewBox="0 0 32 32">
<path d="M16 28.053c-1.667 0-3.228-0.317-4.684-0.951s-2.723-1.489-3.8-2.565c-1.077-1.078-1.932-2.345-2.565-3.8s-0.95-3.016-0.951-4.684c0-1.667 0.317-3.228 0.951-4.684s1.489-2.723 2.565-3.8c1.078-1.077 2.345-1.932 3.8-2.565s3.016-0.95 4.684-0.951c1.667 0 3.228 0.317 4.684 0.951s2.723 1.489 3.8 2.567c1.077 1.077 1.933 2.344 2.567 3.8s0.95 3.017 0.949 4.683c0 1.667-0.317 3.228-0.951 4.684s-1.489 2.723-2.565 3.8c-1.078 1.077-2.345 1.933-3.8 2.567s-3.016 0.95-4.684 0.949zM19.733 21.653l1.867-1.867-4.267-4.267v-6.133h-2.667v7.2l5.067 5.067zM7.467 1.853l1.867 1.867-5.667 5.667-1.867-1.867 5.667-5.667zM24.533 1.853l5.667 5.667-1.867 1.867-5.667-5.667 1.867-1.867z"></path>
</symbol>
<symbol id="icon-camera" viewBox="0 0 32 32">
<path d="M24 12c0-1.471-1.196-2.667-2.667-2.667h-1.912l-3.224-5.372c-0.238-0.394-0.573-0.72-0.973-0.947s-0.852-0.347-1.312-0.348h-7.245v2.667h7.245l2.4 4h-10.979c-1.471 0-2.667 1.196-2.667 2.667v12c0 1.471 1.196 2.667 2.667 2.667h16c1.471 0 2.667-1.196 2.667-2.667v-4l5.333 2.667v-9.333l-5.333 2.667v-4zM14.667 22.667h-8v-2.667h8v2.667z"></path>
</symbol>
<symbol id="icon-sale" viewBox="0 0 32 32">
<path d="M12.54 3.863c0.927-0.79 2.097-1.239 3.315-1.272s2.41 0.352 3.379 1.091l0.227 0.181 0.501 0.427c0.365 0.311 0.807 0.519 1.28 0.6l0.237 0.029 0.657 0.053c1.218 0.097 2.365 0.609 3.251 1.451s1.455 1.962 1.613 3.173l0.028 0.267 0.053 0.659c0.038 0.478 0.204 0.937 0.48 1.328l0.147 0.189 0.429 0.501c0.79 0.927 1.239 2.097 1.272 3.315s-0.352 2.41-1.091 3.379l-0.181 0.227-0.428 0.501c-0.311 0.365-0.519 0.807-0.6 1.28l-0.029 0.237-0.052 0.657c-0.097 1.218-0.609 2.365-1.451 3.251s-1.962 1.455-3.173 1.613l-0.268 0.028-0.657 0.053c-0.478 0.038-0.937 0.204-1.328 0.48l-0.189 0.148-0.503 0.427c-0.927 0.79-2.097 1.239-3.314 1.273s-2.41-0.351-3.379-1.090l-0.225-0.181-0.501-0.428c-0.365-0.311-0.807-0.519-1.28-0.6l-0.237-0.028-0.657-0.053c-1.218-0.097-2.365-0.609-3.25-1.451s-1.455-1.962-1.614-3.173l-0.028-0.267-0.053-0.659c-0.038-0.478-0.204-0.937-0.48-1.328l-0.148-0.189-0.428-0.503c-0.79-0.927-1.239-2.097-1.272-3.315s0.352-2.41 1.091-3.379l0.181-0.225 0.427-0.501c0.311-0.365 0.519-0.807 0.6-1.28l0.029-0.237 0.053-0.657c0.097-1.218 0.609-2.365 1.451-3.25s1.962-1.455 3.173-1.614l0.267-0.028 0.659-0.053c0.478-0.038 0.937-0.204 1.328-0.48l0.189-0.148 0.501-0.428zM19.333 17.333c-0.53 0-1.039 0.211-1.414 0.586s-0.586 0.884-0.586 1.414 0.211 1.039 0.586 1.414c0.375 0.375 0.884 0.586 1.414 0.586s1.039-0.211 1.414-0.586c0.375-0.375 0.586-0.884 0.586-1.414s-0.211-1.039-0.586-1.414c-0.375-0.375-0.884-0.586-1.414-0.586zM19.057 11.057l-8 8c-0.127 0.123-0.229 0.27-0.299 0.433s-0.107 0.338-0.108 0.515c-0.002 0.177 0.032 0.353 0.099 0.517s0.166 0.313 0.291 0.438c0.125 0.125 0.274 0.224 0.438 0.291s0.339 0.101 0.516 0.099c0.177-0.002 0.352-0.038 0.515-0.108s0.31-0.171 0.433-0.299l8-8c0.243-0.251 0.377-0.588 0.374-0.938s-0.143-0.684-0.391-0.931c-0.247-0.247-0.582-0.387-0.931-0.39s-0.686 0.131-0.938 0.374zM12.667 10.667c-0.53 0-1.039 0.211-1.414 0.586s-0.586 0.884-0.586 1.414c0 0.53 0.211 1.039 0.586 1.414s0.884 0.586 1.414 0.586c0.53 0 1.039-0.211 1.414-0.586s0.586-0.884 0.586-1.414c0-0.53-0.211-1.039-0.586-1.414s-0.884-0.586-1.414-0.586z"></path>
</symbol>
<symbol id="icon-present" viewBox="0 0 32 32">
<path d="M12.080 2.573c-2.52-0.013-4.973 2.413-3.853 5.427h-4.227c-0.707 0-1.386 0.281-1.886 0.781s-0.781 1.178-0.781 1.886v2.667c0 0.354 0.14 0.693 0.391 0.943s0.589 0.391 0.943 0.391h12v-4h2.667v4h12c0.354 0 0.693-0.141 0.943-0.391s0.391-0.589 0.391-0.943v-2.667c0-0.707-0.281-1.386-0.781-1.886s-1.178-0.781-1.886-0.781h-4.227c1.56-4.36-4.307-7.44-7.013-3.68l-0.76 1.013-0.76-1.040c-0.84-1.187-2-1.707-3.16-1.72zM12 5.333c1.187 0 1.787 1.44 0.947 2.28s-2.28 0.24-2.28-0.947c0-0.354 0.14-0.693 0.391-0.943s0.589-0.391 0.943-0.391zM20 5.333c1.187 0 1.787 1.44 0.947 2.28s-2.28 0.24-2.28-0.947c0-0.354 0.141-0.693 0.391-0.943s0.589-0.391 0.943-0.391zM2.667 16v10.667c0 0.707 0.281 1.385 0.781 1.886s1.178 0.781 1.886 0.781h21.333c0.707 0 1.385-0.281 1.886-0.781s0.781-1.178 0.781-1.886v-10.667h-12v10.667h-2.667v-10.667h-12z"></path>
</symbol>
<symbol id="icon-certificate" viewBox="0 0 32 32">
<path d="M29 11.107v-4.107c0-0.53-0.211-1.039-0.586-1.414s-0.884-0.586-1.414-0.586h-22c-0.53 0-1.039 0.211-1.414 0.586s-0.586 0.884-0.586 1.414v16c0 0.53 0.211 1.039 0.586 1.414s0.884 0.586 1.414 0.586h14v3c-0 0.171 0.043 0.338 0.126 0.487s0.203 0.274 0.348 0.364c0.145 0.090 0.311 0.141 0.481 0.149s0.34-0.028 0.492-0.105l3.553-1.777 3.553 1.777c0.153 0.076 0.322 0.112 0.492 0.105s0.336-0.059 0.481-0.149c0.145-0.090 0.265-0.215 0.348-0.364s0.127-0.317 0.126-0.487v-7.107c1.282-1.306 2-3.063 2-4.893s-0.718-3.587-2-4.893zM16 18h-7c-0.265 0-0.52-0.105-0.707-0.293s-0.293-0.442-0.293-0.707 0.105-0.52 0.293-0.707c0.188-0.188 0.442-0.293 0.707-0.293h7c0.265 0 0.52 0.105 0.707 0.293s0.293 0.442 0.293 0.707-0.105 0.52-0.293 0.707c-0.187 0.188-0.442 0.293-0.707 0.293zM16 14h-7c-0.265 0-0.52-0.105-0.707-0.293s-0.293-0.442-0.293-0.707 0.105-0.52 0.293-0.707c0.188-0.188 0.442-0.293 0.707-0.293h7c0.265 0 0.52 0.105 0.707 0.293s0.293 0.442 0.293 0.707-0.105 0.52-0.293 0.707c-0.187 0.188-0.442 0.293-0.707 0.293zM27 26.383l-2.553-1.278c-0.139-0.069-0.292-0.106-0.447-0.106s-0.309 0.036-0.447 0.106l-2.553 1.278v-4.059c0.937 0.445 1.962 0.676 3 0.676s2.063-0.231 3-0.676v4.059zM24 21c-0.989 0-1.956-0.293-2.778-0.843s-1.463-1.33-1.841-2.244c-0.379-0.914-0.477-1.919-0.285-2.889s0.669-1.861 1.368-2.56c0.699-0.699 1.59-1.175 2.56-1.368s1.975-0.094 2.889 0.285c0.914 0.378 1.695 1.019 2.244 1.842s0.843 1.789 0.843 2.778c0 1.326-0.527 2.598-1.464 3.536s-2.209 1.464-3.536 1.464z"></path>
</symbol>
<symbol id="icon-help" viewBox="0 0 32 32">
<path d="M15.933 24c0.467 0 0.861-0.161 1.184-0.484s0.484-0.717 0.483-1.183c0-0.467-0.161-0.861-0.483-1.184s-0.716-0.484-1.184-0.483c-0.467 0-0.861 0.161-1.183 0.484s-0.483 0.717-0.484 1.183c0 0.467 0.161 0.861 0.484 1.184s0.717 0.484 1.183 0.483zM14.733 18.867h2.467c0-0.733 0.084-1.311 0.251-1.733s0.639-1 1.416-1.733c0.578-0.578 1.033-1.128 1.367-1.651s0.5-1.15 0.5-1.883c0-1.244-0.456-2.2-1.367-2.867s-1.989-1-3.233-1c-1.267 0-2.295 0.333-3.084 1s-1.339 1.467-1.649 2.4l2.2 0.867c0.111-0.4 0.361-0.833 0.751-1.3s0.984-0.7 1.783-0.7c0.711 0 1.244 0.195 1.6 0.584s0.533 0.817 0.533 1.283c0 0.444-0.133 0.861-0.4 1.251s-0.6 0.75-1 1.083c-0.978 0.867-1.578 1.522-1.8 1.967s-0.333 1.256-0.333 2.433zM16 29.333c-1.844 0-3.578-0.35-5.2-1.051s-3.033-1.65-4.233-2.849c-1.2-1.2-2.15-2.611-2.849-4.233s-1.050-3.356-1.051-5.2c0-1.844 0.35-3.578 1.051-5.2s1.65-3.033 2.849-4.233c1.2-1.2 2.611-2.15 4.233-2.849s3.356-1.050 5.2-1.051c1.844 0 3.578 0.35 5.2 1.051s3.033 1.65 4.233 2.849c1.2 1.2 2.15 2.611 2.851 4.233s1.050 3.356 1.049 5.2c0 1.844-0.35 3.578-1.051 5.2s-1.65 3.033-2.849 4.233c-1.2 1.2-2.611 2.15-4.233 2.851s-3.356 1.050-5.2 1.049z"></path>
</symbol>
<symbol id="icon-conveer-element" viewBox="0 0 32 32">
<path fill="#40452d" style="fill: var(--color1, #40452d)" d="M20.298 20.546c0 1.032-2.294 1.869-5.125 1.869s-5.125-0.837-5.125-1.869c0-1.032 2.294-1.869 5.125-1.869s5.125 0.837 5.125 1.869z"></path>
<path fill="#53593b" style="fill: var(--color2, #53593b)" d="M20.298 18.841c0 1.032-2.294 1.869-5.125 1.869s-5.125-0.837-5.125-1.869c0-1.032 2.294-1.869 5.125-1.869s5.125 0.837 5.125 1.869z"></path>
<path fill="#40452d" style="fill: var(--color1, #40452d)" d="M10.081 20.612v-1.837c0.27 1.33 3.406 1.837 5.125 1.902 1.233-0.016 4.716-0.458 5.060-1.902v1.837l-5.060 0.066-5.125-0.066z"></path>
<path fill="#d69347" style="fill: var(--color3, #d69347)" d="M18.936 18.873c0-0.5-0.097-0.994-0.286-1.456s-0.466-0.881-0.816-1.234-0.764-0.633-1.221-0.825c-0.456-0.191-0.946-0.29-1.44-0.29s-0.983 0.098-1.44 0.29c-0.457 0.191-0.871 0.471-1.221 0.825s-0.627 0.773-0.816 1.234c-0.189 0.462-0.286 0.956-0.286 1.456 2.173 1.312 5.319 1.181 7.525 0z"></path>
<path fill="#f3f3f3" style="fill: var(--color4, #f3f3f3)" d="M17.863 16.914c-0.094 0.14-0.561-0.014-1.041-0.345s-0.794-0.712-0.699-0.853c0.094-0.14 0.561 0.014 1.041 0.345s0.794 0.712 0.699 0.853z"></path>
<path fill="#eaeaea" style="fill: var(--color5, #eaeaea)" d="M17.616 16.693c-0.037 0.056-0.222-0.006-0.412-0.136s-0.314-0.282-0.277-0.337c0.037-0.056 0.222 0.006 0.412 0.136s0.314 0.282 0.277 0.337z"></path>
<path fill="#000" style="fill: var(--color6, #000)" d="M0.077 8.348c0 0 9.009 6.361 15.227 6.487 6.797 0.138 16.696-6.487 16.696-6.487h-31.923z"></path>
</symbol>
<symbol id="icon-registration-button" viewBox="0 0 32 32">
<path fill="#fdf8f0" style="fill: var(--color7, #fdf8f0)" d="M28.726 15.851c0 7.028-5.697 12.726-12.726 12.726s-12.726-5.697-12.726-12.726c0-7.028 5.697-12.726 12.726-12.726s12.726 5.697 12.726 12.726z"></path>
<path fill="#292928" style="fill: var(--color8, #292928)" d="M5.45 17.425c0.012 0.087 0.012 0.176-0.001 0.265s-0.040 0.171-0.082 0.244l-0.129-0.036c0.035-0.064 0.059-0.136 0.071-0.216 0.011-0.080 0.011-0.157 0.001-0.232-0.012-0.075-0.032-0.139-0.059-0.191s-0.061-0.092-0.101-0.118c-0.040-0.026-0.082-0.036-0.126-0.030-0.064 0.009-0.11 0.045-0.138 0.108-0.029 0.063-0.036 0.146-0.022 0.247l0.028 0.207-0.12 0.016-0.027-0.196c-0.008-0.060-0.023-0.112-0.045-0.156s-0.049-0.076-0.081-0.097c-0.033-0.022-0.069-0.030-0.109-0.025-0.043 0.006-0.078 0.026-0.104 0.061-0.027 0.034-0.044 0.077-0.052 0.132s-0.008 0.114 0.001 0.18c0.010 0.060 0.027 0.121 0.053 0.183 0.024 0.062 0.057 0.123 0.098 0.181l-0.12 0.063c-0.046-0.066-0.084-0.132-0.112-0.198-0.030-0.068-0.049-0.137-0.059-0.208-0.016-0.096-0.017-0.185-0.001-0.265 0.015-0.082 0.044-0.149 0.087-0.202 0.041-0.053 0.096-0.084 0.163-0.093 0.060-0.008 0.115 0.003 0.164 0.034s0.091 0.075 0.124 0.133 0.055 0.126 0.066 0.204l-0.045-0.001c-0.019-0.138-0.007-0.249 0.036-0.333 0.043-0.086 0.111-0.135 0.203-0.147 0.072-0.010 0.139 0.005 0.201 0.045 0.060 0.040 0.111 0.099 0.153 0.176 0.042 0.076 0.069 0.163 0.083 0.263z"></path>
<path fill="#292928" style="fill: var(--color8, #292928)" d="M5.455 14.43l-0.268-0.031-0.045 0.002-0.448-0.052c-0.103-0.012-0.186 0.008-0.248 0.060-0.062 0.051-0.1 0.133-0.113 0.247-0.009 0.079-0.005 0.155 0.013 0.228s0.046 0.138 0.083 0.192l-0.131 0.060c-0.045-0.068-0.077-0.146-0.094-0.235-0.019-0.090-0.023-0.182-0.012-0.277 0.018-0.157 0.071-0.273 0.16-0.349 0.087-0.077 0.21-0.107 0.368-0.088l0.753 0.087-0.018 0.157zM5.418 14.849c-0.011 0.091-0.034 0.168-0.071 0.233-0.038 0.063-0.086 0.109-0.142 0.138-0.058 0.029-0.122 0.040-0.191 0.032-0.063-0.007-0.118-0.028-0.166-0.064-0.049-0.037-0.085-0.091-0.108-0.162-0.024-0.073-0.030-0.167-0.016-0.283l0.048-0.418 0.122 0.014-0.048 0.413c-0.014 0.117-0.002 0.201 0.034 0.252 0.036 0.049 0.085 0.078 0.147 0.085 0.069 0.008 0.128-0.012 0.176-0.062s0.077-0.122 0.088-0.219c0.011-0.092-0.001-0.174-0.035-0.245-0.035-0.073-0.091-0.129-0.168-0.169l0.117-0.024c0.076 0.040 0.134 0.101 0.173 0.184 0.039 0.081 0.052 0.179 0.038 0.295z"></path>
<path fill="#292928" style="fill: var(--color8, #292928)" d="M6.087 12.134c-0.038 0.098-0.094 0.179-0.17 0.241-0.077 0.062-0.167 0.1-0.271 0.115-0.105 0.013-0.219-0.004-0.343-0.052s-0.22-0.111-0.288-0.19c-0.069-0.080-0.111-0.168-0.125-0.264s-0.002-0.195 0.036-0.295c0.042-0.108 0.103-0.196 0.185-0.262 0.081-0.068 0.175-0.11 0.282-0.126 0.106-0.016 0.216-0.002 0.33 0.042 0.116 0.044 0.207 0.108 0.275 0.19s0.11 0.177 0.126 0.282c0.016 0.104 0.004 0.211-0.038 0.319zM6.271 12.88l-1.56-0.599 0.057-0.148 0.343 0.132 0.222 0.103 0.238 0.067 0.759 0.291-0.059 0.154zM5.946 12.093c0.031-0.081 0.041-0.16 0.029-0.238-0.013-0.078-0.046-0.149-0.098-0.212-0.054-0.064-0.124-0.113-0.213-0.146s-0.173-0.045-0.254-0.033c-0.081 0.012-0.152 0.043-0.215 0.092s-0.109 0.114-0.14 0.195c-0.031 0.081-0.040 0.161-0.028 0.241 0.013 0.078 0.046 0.149 0.098 0.212 0.053 0.062 0.123 0.11 0.211 0.143s0.173 0.046 0.255 0.036c0.081-0.012 0.152-0.043 0.215-0.092 0.061-0.051 0.107-0.117 0.138-0.198z"></path>
<path fill="#292928" style="fill: var(--color8, #292928)" d="M7.371 9.781c-0.074 0.104-0.16 0.179-0.258 0.227-0.1 0.047-0.203 0.066-0.311 0.056-0.108-0.011-0.212-0.051-0.31-0.121s-0.171-0.153-0.217-0.248c-0.045-0.097-0.063-0.197-0.054-0.301 0.009-0.106 0.046-0.205 0.111-0.297 0.066-0.093 0.147-0.161 0.241-0.202 0.094-0.044 0.194-0.059 0.301-0.046 0.105 0.012 0.208 0.054 0.308 0.125 0.006 0.005 0.013 0.010 0.019 0.017 0.006 0.005 0.013 0.009 0.021 0.015l-0.615 0.866-0.1-0.071 0.564-0.794 0.002 0.081c-0.072-0.051-0.147-0.081-0.225-0.089-0.078-0.010-0.152 0-0.221 0.031s-0.129 0.081-0.178 0.15c-0.048 0.068-0.076 0.141-0.083 0.217s0.007 0.15 0.042 0.221c0.035 0.071 0.090 0.132 0.163 0.184l0.021 0.015c0.076 0.054 0.154 0.085 0.236 0.093 0.081 0.006 0.159-0.009 0.234-0.045 0.075-0.038 0.139-0.096 0.194-0.173 0.043-0.061 0.072-0.124 0.088-0.191 0.016-0.068 0.016-0.137-0.002-0.206l0.141-0.014c0.022 0.082 0.023 0.166 0.003 0.253-0.019 0.085-0.057 0.168-0.113 0.247z"></path>
<path fill="#292928" style="fill: var(--color8, #292928)" d="M8.867 7.226l0.079 0.094-0.541 0.457-0.079-0.094 0.541-0.457zM9.178 7.845c-0.095 0.080-0.196 0.131-0.305 0.154-0.11 0.022-0.217 0.015-0.321-0.020-0.104-0.036-0.194-0.1-0.271-0.191-0.078-0.092-0.126-0.192-0.143-0.299-0.017-0.109-0.006-0.215 0.035-0.319 0.040-0.104 0.107-0.197 0.201-0.277 0.077-0.065 0.158-0.113 0.243-0.144s0.17-0.042 0.255-0.033l-0.011 0.134c-0.073-0.003-0.143 0.008-0.209 0.034-0.065 0.024-0.127 0.061-0.186 0.111-0.072 0.061-0.124 0.132-0.155 0.213-0.030 0.080-0.038 0.163-0.024 0.249 0.014 0.084 0.051 0.161 0.111 0.232 0.061 0.072 0.132 0.122 0.212 0.15 0.081 0.027 0.164 0.032 0.249 0.018 0.085-0.017 0.164-0.056 0.236-0.117 0.059-0.050 0.106-0.105 0.141-0.165 0.035-0.062 0.057-0.13 0.065-0.204l0.134 0.011c-0.005 0.085-0.030 0.168-0.074 0.248-0.045 0.079-0.106 0.151-0.183 0.215z"></path>
<path fill="#292928" style="fill: var(--color8, #292928)" d="M11.418 6.41c-0.109 0.053-0.218 0.076-0.327 0.070-0.109-0.008-0.208-0.042-0.297-0.102-0.090-0.061-0.161-0.147-0.214-0.255-0.053-0.11-0.076-0.219-0.067-0.326s0.044-0.205 0.106-0.294c0.064-0.089 0.15-0.16 0.258-0.213 0.093-0.045 0.187-0.068 0.279-0.068s0.178 0.026 0.257 0.077l-0.074 0.129c-0.065-0.038-0.131-0.056-0.2-0.056s-0.136 0.017-0.201 0.048c-0.078 0.038-0.14 0.090-0.185 0.157-0.046 0.065-0.072 0.139-0.077 0.22s0.013 0.166 0.055 0.252c0.042 0.086 0.096 0.153 0.164 0.2s0.141 0.073 0.221 0.079c0.080 0.005 0.159-0.012 0.237-0.050 0.066-0.032 0.12-0.074 0.163-0.128s0.070-0.117 0.082-0.189l0.147 0.022c-0.009 0.092-0.042 0.175-0.099 0.249-0.058 0.073-0.133 0.132-0.227 0.177z"></path>
<path fill="#292928" style="fill: var(--color8, #292928)" d="M13.82 5.589l-0.221-1.098 0.050 0.035-0.494 0.1-0.028-0.141 1.068-0.215 0.028 0.141-0.494 0.1 0.032-0.052 0.221 1.098-0.162 0.033z"></path>
<path fill="#292928" style="fill: var(--color8, #292928)" d="M16.621 5.396c-0.105-0.005-0.199-0.034-0.282-0.087-0.082-0.054-0.147-0.128-0.193-0.222-0.045-0.095-0.063-0.21-0.056-0.343s0.038-0.244 0.092-0.333c0.054-0.090 0.125-0.157 0.213-0.201s0.185-0.062 0.292-0.057c0.116 0.006 0.218 0.038 0.307 0.095 0.090 0.056 0.159 0.132 0.207 0.23 0.048 0.096 0.068 0.204 0.062 0.327-0.006 0.124-0.038 0.231-0.096 0.321s-0.134 0.159-0.23 0.207c-0.094 0.048-0.199 0.069-0.315 0.063zM15.97 5.802l0.087-1.669 0.158 0.008-0.019 0.367-0.029 0.243 0.010 0.247-0.043 0.812-0.165-0.009zM16.617 5.249c0.087 0.005 0.165-0.011 0.235-0.046 0.070-0.037 0.127-0.090 0.171-0.159 0.044-0.071 0.068-0.153 0.073-0.247s-0.011-0.178-0.047-0.251c-0.036-0.073-0.088-0.132-0.154-0.176s-0.142-0.068-0.229-0.072c-0.087-0.005-0.166 0.011-0.238 0.048-0.070 0.037-0.127 0.090-0.171 0.159-0.042 0.069-0.066 0.151-0.071 0.245s0.010 0.179 0.045 0.254c0.036 0.073 0.088 0.132 0.154 0.176 0.068 0.042 0.145 0.066 0.231 0.070z"></path>
<path fill="#292928" style="fill: var(--color8, #292928)" d="M18.636 6.169c-0.055-0.017-0.104-0.042-0.149-0.076-0.043-0.033-0.077-0.073-0.101-0.119l0.11-0.095c0.021 0.037 0.046 0.069 0.075 0.094 0.030 0.027 0.067 0.048 0.11 0.061 0.052 0.016 0.101 0.015 0.147-0.003 0.047-0.016 0.099-0.055 0.156-0.117l0.129-0.147 0.025-0.019 0.817-0.93 0.155 0.049-0.992 1.121c-0.056 0.065-0.111 0.114-0.165 0.146-0.052 0.032-0.104 0.050-0.156 0.054-0.052 0.005-0.106-0.002-0.162-0.019zM19.075 5.858l-0.162-1.366 0.164 0.051 0.14 1.218-0.142 0.097z"></path>
<path fill="#292928" style="fill: var(--color8, #292928)" d="M21.242 6.741l0.643-1.037 0.458 0.284c0.117 0.073 0.195 0.152 0.235 0.239 0.041 0.087 0.034 0.174-0.020 0.261-0.052 0.084-0.125 0.129-0.218 0.136-0.092 0.005-0.191-0.026-0.296-0.091l0.053-0.024c0.124 0.077 0.2 0.156 0.23 0.238s0.017 0.166-0.037 0.253c-0.056 0.090-0.132 0.139-0.229 0.148-0.095 0.009-0.211-0.029-0.348-0.114l-0.472-0.293zM21.447 6.715l0.33 0.205c0.088 0.055 0.163 0.082 0.225 0.082 0.064-0 0.116-0.032 0.155-0.095s0.047-0.122 0.024-0.176c-0.023-0.054-0.078-0.109-0.167-0.163l-0.344-0.213-0.224 0.361zM21.736 6.249l0.312 0.194c0.080 0.050 0.151 0.073 0.212 0.068 0.062-0.003 0.111-0.034 0.147-0.092s0.041-0.115 0.016-0.171c-0.024-0.055-0.076-0.108-0.157-0.157l-0.312-0.193-0.218 0.352z"></path>
<path fill="#292928" style="fill: var(--color8, #292928)" d="M23.929 8.906l0.195-0.187 0.027-0.036 0.326-0.312c0.075-0.072 0.112-0.148 0.112-0.229 0.001-0.080-0.039-0.161-0.118-0.244-0.055-0.057-0.116-0.102-0.185-0.135s-0.135-0.053-0.201-0.058l0.038-0.139c0.081 0.008 0.161 0.034 0.242 0.077 0.081 0.042 0.155 0.098 0.222 0.167 0.109 0.114 0.165 0.229 0.167 0.345 0.004 0.116-0.051 0.23-0.167 0.34l-0.547 0.524-0.109-0.114zM23.629 8.611c-0.063-0.066-0.108-0.134-0.134-0.203-0.024-0.070-0.029-0.135-0.015-0.198 0.014-0.063 0.047-0.119 0.097-0.167 0.046-0.044 0.097-0.073 0.155-0.087 0.059-0.014 0.124-0.007 0.194 0.021 0.072 0.028 0.148 0.084 0.228 0.168l0.291 0.304-0.089 0.085-0.288-0.3c-0.082-0.085-0.153-0.13-0.216-0.134-0.061-0.003-0.114 0.016-0.159 0.059-0.050 0.048-0.072 0.106-0.065 0.175s0.045 0.137 0.112 0.208c0.064 0.067 0.135 0.11 0.211 0.129 0.078 0.019 0.157 0.012 0.237-0.021l-0.057 0.106c-0.079 0.033-0.163 0.039-0.252 0.016-0.087-0.022-0.171-0.074-0.252-0.158z"></path>
<path fill="#292928" style="fill: var(--color8, #292928)" d="M25.235 10.729l0.976-0.55-0.018 0.058-0.248-0.439 0.125-0.071 0.535 0.95-0.125 0.071-0.248-0.439 0.059 0.015-0.976 0.55-0.081-0.144z"></path>
<path fill="#292928" style="fill: var(--color8, #292928)" d="M26.132 12.718l1.178-0.316 0.043 0.159-0.936 0.251 1.147 0.537 0.038 0.141-1.178 0.316-0.043-0.159 0.938-0.251-1.149-0.534-0.038-0.144z"></path>
<path fill="#292928" style="fill: var(--color8, #292928)" d="M26.628 15.966c-0.001-0.121 0.024-0.229 0.076-0.326 0.053-0.095 0.126-0.17 0.218-0.225 0.094-0.055 0.201-0.084 0.322-0.085 0.122-0.001 0.23 0.025 0.324 0.078s0.167 0.127 0.221 0.221c0.054 0.095 0.081 0.204 0.082 0.324 0.001 0.104-0.018 0.198-0.057 0.282s-0.099 0.151-0.179 0.199l-0.085-0.122c0.062-0.042 0.107-0.095 0.135-0.157s0.043-0.13 0.042-0.203c-0.001-0.087-0.022-0.165-0.063-0.234-0.039-0.069-0.095-0.124-0.167-0.163s-0.156-0.059-0.252-0.058c-0.096 0.001-0.18 0.022-0.25 0.063s-0.126 0.097-0.166 0.167c-0.038 0.070-0.057 0.149-0.056 0.235 0.001 0.073 0.016 0.14 0.046 0.202s0.075 0.113 0.136 0.154l-0.082 0.124c-0.079-0.047-0.141-0.112-0.183-0.196-0.041-0.083-0.062-0.177-0.063-0.281z"></path>
<path fill="#292928" style="fill: var(--color8, #292928)" d="M26.245 18.91l0.426 0.105-0.041 0.021 0.099-0.402c0.037-0.152 0.1-0.263 0.187-0.332s0.194-0.089 0.32-0.058c0.135 0.033 0.225 0.104 0.269 0.212 0.045 0.108 0.049 0.239 0.011 0.393l-0.122 0.499-1.185-0.291 0.036-0.147zM26.458 18.044l0.376 0.437-0.041 0.167-0.378-0.43 0.043-0.174zM26.719 19.027l0.618 0.152-0.055 0.018 0.093-0.377c0.027-0.11 0.027-0.201 0-0.273-0.027-0.071-0.088-0.117-0.183-0.141-0.176-0.043-0.292 0.047-0.347 0.271l-0.095 0.388-0.031-0.039z"></path>
<path fill="#292928" style="fill: var(--color8, #292928)" d="M24.198 22.822l0.898 0.826-0.112 0.121-0.397-0.365-0.521 0.566 0.397 0.365-0.112 0.121-0.898-0.826 0.112-0.121 0.397 0.365 0.521-0.566-0.397-0.365 0.112-0.121z"></path>
<path fill="#292928" style="fill: var(--color8, #292928)" d="M21.486 25.143l0.147 0.226 0.030 0.033 0.245 0.378c0.057 0.087 0.125 0.138 0.204 0.153 0.078 0.016 0.166-0.008 0.262-0.070 0.066-0.043 0.122-0.095 0.168-0.156s0.077-0.123 0.095-0.186l0.13 0.063c-0.023 0.078-0.064 0.152-0.121 0.223-0.057 0.072-0.125 0.134-0.206 0.186-0.133 0.086-0.256 0.119-0.371 0.099-0.115-0.018-0.216-0.093-0.303-0.227l-0.413-0.635 0.132-0.086zM21.833 24.904c0.077-0.050 0.152-0.081 0.225-0.093 0.073-0.010 0.138-0.003 0.197 0.022 0.060 0.026 0.108 0.068 0.146 0.127 0.035 0.053 0.053 0.109 0.057 0.168 0.003 0.061-0.016 0.123-0.056 0.186-0.041 0.065-0.11 0.13-0.207 0.193l-0.353 0.229-0.067-0.103 0.349-0.227c0.099-0.064 0.156-0.126 0.172-0.187 0.015-0.060 0.006-0.115-0.028-0.167-0.038-0.058-0.091-0.090-0.159-0.096s-0.143 0.018-0.225 0.071c-0.078 0.051-0.134 0.112-0.167 0.183-0.034 0.073-0.041 0.152-0.024 0.237l-0.093-0.075c-0.018-0.085-0.007-0.168 0.031-0.25 0.038-0.082 0.105-0.154 0.202-0.217z"></path>
<path fill="#292928" style="fill: var(--color8, #292928)" d="M16.27 26.672l0.545 0.566-0.131 0.091-0.609-0.643 0.195-0.014zM17.162 26.606l0.089 1.217-0.164 0.012-0.089-1.217 0.164-0.012zM17.088 27.157l0.010 0.141-0.392 0.029-0.010-0.141 0.392-0.029zM16.663 27.237l0.155 0.012-0.44 0.638-0.178 0.013 0.464-0.663z"></path>
<path fill="#292928" style="fill: var(--color8, #292928)" d="M14.601 26.114c0.056 0.010 0.109 0.029 0.157 0.057 0.047 0.027 0.086 0.063 0.116 0.106l-0.097 0.108c-0.025-0.034-0.054-0.062-0.086-0.084-0.034-0.023-0.072-0.039-0.117-0.047-0.053-0.010-0.102-0.003-0.145 0.021-0.045 0.022-0.092 0.067-0.14 0.135l-0.109 0.162-0.023 0.022-0.694 1.025-0.16-0.029 0.843-1.237c0.048-0.072 0.096-0.127 0.145-0.165 0.048-0.039 0.097-0.063 0.148-0.072 0.051-0.011 0.105-0.012 0.163-0.001zM14.205 26.478l0.331 1.335-0.169-0.030-0.291-1.19 0.129-0.114z"></path>
<path fill="#000" style="fill: var(--color6, #000)" d="M11.497 25.656c0.096 0.044 0.172 0.105 0.23 0.185 0.057 0.081 0.089 0.173 0.098 0.277 0.006 0.105-0.018 0.218-0.074 0.339s-0.125 0.213-0.208 0.276c-0.084 0.064-0.174 0.1-0.272 0.108s-0.195-0.010-0.292-0.054c-0.106-0.048-0.189-0.116-0.25-0.201-0.063-0.085-0.099-0.182-0.108-0.29-0.009-0.106 0.012-0.215 0.063-0.327 0.052-0.113 0.121-0.2 0.207-0.263s0.183-0.099 0.29-0.108c0.105-0.010 0.21 0.010 0.316 0.058zM12.252 25.519l-0.696 1.519-0.144-0.066 0.153-0.334 0.116-0.215 0.081-0.234 0.339-0.74 0.15 0.069zM11.446 25.794c-0.079-0.036-0.157-0.051-0.235-0.044-0.079 0.008-0.151 0.036-0.218 0.084-0.067 0.050-0.12 0.117-0.159 0.203s-0.056 0.17-0.049 0.251 0.033 0.155 0.078 0.22c0.045 0.065 0.107 0.116 0.186 0.152s0.158 0.050 0.239 0.043c0.079-0.008 0.151-0.036 0.218-0.084 0.065-0.049 0.117-0.116 0.156-0.202s0.057-0.17 0.052-0.252c-0.007-0.082-0.033-0.155-0.078-0.22-0.047-0.064-0.11-0.114-0.189-0.151z"></path>
<path fill="#000" style="fill: var(--color6, #000)" d="M9.248 24.242c0.094 0.076 0.162 0.165 0.203 0.266 0.039 0.102 0.051 0.206 0.034 0.312-0.017 0.108-0.064 0.208-0.14 0.302-0.077 0.095-0.166 0.162-0.266 0.2s-0.204 0.048-0.311 0.029c-0.108-0.020-0.209-0.067-0.303-0.143-0.081-0.065-0.141-0.14-0.181-0.224s-0.053-0.172-0.039-0.265l0.148 0.012c-0.007 0.075 0.005 0.143 0.035 0.205s0.073 0.116 0.129 0.162c0.067 0.055 0.141 0.088 0.22 0.101 0.079 0.014 0.156 0.006 0.232-0.024s0.144-0.082 0.205-0.157c0.060-0.075 0.097-0.152 0.111-0.233s0.006-0.159-0.023-0.234c-0.030-0.074-0.078-0.138-0.146-0.193-0.057-0.046-0.118-0.077-0.185-0.093s-0.135-0.014-0.206 0.007l-0.043-0.142c0.087-0.031 0.176-0.037 0.268-0.017 0.090 0.021 0.176 0.065 0.257 0.13z"></path>
<path fill="#000" style="fill: var(--color6, #000)" d="M7.075 22.687l-0.895 0.705-0.116-0.157 0.935-0.651 0.076 0.103zM7.437 22.337c0.020 0.027 0.029 0.058 0.025 0.092-0.006 0.033-0.022 0.060-0.048 0.079-0.027 0.020-0.057 0.028-0.088 0.022-0.033-0.006-0.060-0.023-0.081-0.050-0.021-0.029-0.029-0.059-0.023-0.090 0.004-0.032 0.019-0.057 0.046-0.078 0.026-0.019 0.056-0.027 0.090-0.023 0.032 0.004 0.058 0.020 0.079 0.048z"></path>
<path fill="#f9d873" style="fill: var(--color9, #f9d873)" d="M26.344 15.926c0 5.672-4.598 10.27-10.27 10.27s-10.27-4.598-10.27-10.27c0-5.672 4.598-10.27 10.27-10.27s10.27 4.598 10.27 10.27z"></path>
<path fill="#53593b" style="fill: var(--color2, #53593b)" d="M18.753 14.82c0.794 0.458 0.794 1.604 0 2.062l-3.237 1.869c-0.794 0.458-1.786-0.115-1.786-1.031v-3.738c0-0.917 0.992-1.489 1.786-1.031l3.237 1.869z"></path>
</symbol>
<symbol id="icon-arrow-up-white" viewBox="0 0 61 55" fill="none" >
  <path d="M13.3438 26.2109L30.5 10.7422L47.6563 26.2109M30.5 12.8906V44.2578" stroke="white" stroke-width="2.71875" stroke-miterlimit="10" stroke-linecap="square" />
</symbol>
</defs>
</svg>
