<svg aria-hidden="true" style="position: absolute; width: 0; height: 0; overflow: hidden;" version="1.1" xmlns="http://www.w3.org/2000/svg" xmlns:xlink="http://www.w3.org/1999/xlink">
<defs>
<symbol id="icon-625" viewBox="0 0 14 32">
<path d="M1.493 6.055c0-1.107 0.244-2.042 0.732-2.804 0.5-0.762 1.215-1.34 2.143-1.732 0.941-0.393 2.066-0.589 3.376-0.589 1.417 0 2.602 0.238 3.554 0.714 0.964 0.488 1.691 1.161 2.179 2.018s0.732 1.852 0.732 2.983c0 0.56-0.054 1.095-0.161 1.607s-0.28 0.964-0.518 1.357l-1.036-0.518c0.214-0.322 0.363-0.691 0.447-1.107 0.095-0.417 0.143-0.857 0.143-1.322 0-1.345-0.429-2.423-1.286-3.233-0.857-0.798-2.137-1.197-3.84-1.197-0.262 0-0.589 0.012-0.982 0.036-0.381 0.036-0.762 0.107-1.143 0.214l0.339-0.446c0.619 0.131 1.143 0.387 1.572 0.768 0.441 0.381 0.774 0.857 1 1.429s0.339 1.197 0.339 1.875c0 0.833-0.155 1.566-0.464 2.197s-0.744 1.125-1.304 1.482c-0.56 0.357-1.22 0.536-1.982 0.536-0.774 0-1.453-0.185-2.036-0.554-0.572-0.369-1.018-0.881-1.34-1.536-0.31-0.643-0.464-1.369-0.464-2.179zM2.582 6.001c0 0.595 0.107 1.119 0.321 1.572 0.226 0.464 0.542 0.828 0.947 1.089 0.417 0.262 0.899 0.393 1.447 0.393 0.822 0 1.476-0.286 1.965-0.857 0.488-0.56 0.732-1.322 0.732-2.286 0-0.643-0.119-1.203-0.357-1.679s-0.566-0.851-0.982-1.125c-0.405-0.274-0.869-0.411-1.393-0.411-0.452 0-0.887 0.125-1.304 0.375-0.405 0.25-0.738 0.619-1 1.107-0.25 0.5-0.375 1.107-0.375 1.822zM1.6 11.58h0.911l5.090 5.197c0.464 0.476 0.869 0.834 1.214 1.072 0.357 0.238 0.691 0.399 1 0.482s0.601 0.125 0.875 0.125c0.726 0 1.298-0.25 1.715-0.75 0.417-0.488 0.625-1.215 0.625-2.179 0-0.738-0.113-1.393-0.339-1.965-0.226-0.56-0.578-1.042-1.054-1.447l0.786-0.911c0.572 0.488 1.012 1.113 1.322 1.875s0.464 1.613 0.464 2.554c0 0.845-0.137 1.578-0.411 2.197-0.262 0.619-0.649 1.095-1.161 1.429-0.512 0.345-1.113 0.518-1.804 0.518-0.405 0-0.804-0.060-1.197-0.179-0.393-0.107-0.81-0.31-1.25-0.607-0.429-0.286-0.917-0.708-1.465-1.268l-4.679-4.769 0.5-0.357v7.751h-1.143v-8.77zM1.493 25.911c0-0.893 0.143-1.744 0.429-2.554 0.298-0.81 0.691-1.453 1.179-1.929l1.018 0.625c-0.417 0.393-0.762 0.929-1.036 1.607-0.274 0.691-0.411 1.435-0.411 2.233 0 1.060 0.232 1.863 0.697 2.411 0.476 0.56 1.095 0.839 1.857 0.839 0.536 0 0.994-0.131 1.375-0.393 0.393-0.25 0.697-0.679 0.911-1.286s0.322-1.441 0.322-2.5v-2.661l6.269 0.643v6.841h-1.143l0-6.323 0.625 0.661-5.251-0.554 0.643-0.661v2.34c0 1.262-0.155 2.274-0.464 3.036s-0.744 1.31-1.304 1.643c-0.548 0.345-1.191 0.518-1.929 0.518-0.702 0-1.345-0.167-1.929-0.5-0.572-0.333-1.024-0.833-1.357-1.5s-0.5-1.512-0.5-2.536z"></path>
</symbol>
<symbol id="icon-1265" viewBox="0 0 85 32">
<path d="M6.906 28.444v-26.592l1.27 1.349h-7.819v-2.54h9.407v27.783h-2.858zM15.889 28.444v-2.024l11.55-11.312c1.058-1.032 1.852-1.932 2.381-2.699 0.529-0.794 0.886-1.535 1.072-2.223s0.278-1.336 0.278-1.945c0-1.614-0.556-2.884-1.667-3.81-1.085-0.926-2.699-1.389-4.842-1.389-1.641 0-3.096 0.251-4.366 0.754-1.244 0.503-2.315 1.283-3.215 2.342l-2.024-1.746c1.085-1.27 2.474-2.249 4.167-2.937s3.585-1.032 5.676-1.032c1.879 0 3.506 0.304 4.882 0.913 1.376 0.582 2.434 1.442 3.175 2.58 0.767 1.138 1.151 2.474 1.151 4.009 0 0.9-0.132 1.786-0.397 2.659-0.238 0.873-0.688 1.799-1.349 2.778-0.635 0.953-1.574 2.037-2.818 3.255l-10.597 10.399-0.794-1.111h17.225v2.54h-19.488zM50.277 28.683c-2.461 0-4.538-0.542-6.231-1.627-1.693-1.111-2.977-2.699-3.85-4.763-0.873-2.090-1.309-4.591-1.309-7.501 0-3.149 0.529-5.782 1.588-7.898 1.085-2.143 2.58-3.757 4.485-4.842s4.114-1.627 6.628-1.627c1.243 0 2.434 0.119 3.572 0.357s2.143 0.622 3.017 1.151l-1.151 2.302c-0.715-0.476-1.535-0.807-2.461-0.992-0.926-0.212-1.905-0.318-2.937-0.318-2.99 0-5.385 0.953-7.184 2.858-1.773 1.905-2.659 4.75-2.659 8.533 0 0.582 0.026 1.31 0.079 2.183 0.079 0.847 0.238 1.693 0.476 2.54l-0.992-0.754c0.291-1.376 0.86-2.54 1.707-3.493 0.847-0.979 1.905-1.72 3.175-2.223s2.659-0.754 4.167-0.754c1.852 0 3.479 0.344 4.882 1.032s2.501 1.654 3.294 2.897c0.794 1.244 1.191 2.712 1.191 4.406 0 1.72-0.41 3.228-1.23 4.525-0.82 1.27-1.958 2.262-3.413 2.977-1.429 0.688-3.043 1.032-4.842 1.032zM50.157 26.262c1.323 0 2.487-0.238 3.493-0.714 1.032-0.503 1.839-1.204 2.421-2.104 0.582-0.926 0.873-1.998 0.873-3.215 0-1.826-0.635-3.281-1.905-4.366-1.243-1.085-2.937-1.627-5.080-1.627-1.429 0-2.672 0.265-3.731 0.794s-1.892 1.257-2.501 2.183c-0.608 0.9-0.913 1.932-0.913 3.096 0 1.005 0.278 1.971 0.833 2.897 0.556 0.9 1.376 1.641 2.461 2.223 1.111 0.556 2.461 0.834 4.048 0.834zM71.843 28.683c-1.985 0-3.877-0.318-5.676-0.953-1.799-0.662-3.228-1.535-4.287-2.62l1.389-2.262c0.873 0.926 2.064 1.693 3.572 2.302 1.535 0.609 3.188 0.913 4.961 0.913 2.355 0 4.141-0.516 5.358-1.548 1.244-1.058 1.865-2.434 1.865-4.128 0-1.191-0.291-2.209-0.873-3.056-0.556-0.873-1.508-1.548-2.858-2.024s-3.201-0.714-5.557-0.714h-5.914l1.429-13.931h15.201v2.54h-14.050l1.468-1.389-1.231 11.669-1.468-1.429h5.2c2.805 0 5.053 0.344 6.747 1.032s2.911 1.654 3.652 2.897c0.767 1.217 1.151 2.646 1.151 4.287 0 1.561-0.371 2.99-1.111 4.287-0.741 1.27-1.852 2.276-3.334 3.016s-3.36 1.111-5.636 1.111z"></path>
</symbol>
<symbol id="icon-bxs_video-recording" viewBox="0 0 32 32">
<path fill="#53593b" style="fill: var(--color1, #53593b)" d="M24 12c0-1.471-1.196-2.667-2.667-2.667h-1.912l-3.224-5.372c-0.238-0.394-0.573-0.72-0.973-0.947s-0.852-0.347-1.312-0.348h-7.245v2.667h7.245l2.4 4h-10.979c-1.471 0-2.667 1.196-2.667 2.667v12c0 1.471 1.196 2.667 2.667 2.667h16c1.471 0 2.667-1.196 2.667-2.667v-4l5.333 2.667v-9.333l-5.333 2.667v-4zM14.667 22.667h-8v-2.667h8v2.667z"></path>
</symbol>
<symbol id="icon-fluent_people-community-16-filled" viewBox="0 0 32 32">
<path fill="#53593b" style="fill: var(--color1, #53593b)" d="M6 6c0-1.061 0.421-2.078 1.172-2.828s1.768-1.172 2.828-1.172c1.061 0 2.078 0.421 2.828 1.172s1.172 1.768 1.172 2.828-0.421 2.078-1.172 2.828c-0.75 0.75-1.768 1.172-2.828 1.172s-2.078-0.421-2.828-1.172c-0.75-0.75-1.172-1.768-1.172-2.828zM19.558 9.168l0.084 0.064c0.849 0.629 1.911 0.897 2.957 0.745s1.988-0.711 2.623-1.555c0.635-0.844 0.909-1.906 0.765-2.952s-0.698-1.993-1.538-2.633c-0.84-0.64-1.899-0.922-2.947-0.784s-1.997 0.685-2.643 1.521c-0.646 0.836-0.935 1.893-0.803 2.942s0.671 2.002 1.503 2.653zM12.536 12c0.251-0.476 0.596-0.896 1.013-1.235s0.899-0.591 1.416-0.74c0.517-0.149 1.058-0.192 1.592-0.127s1.049 0.237 1.515 0.506c0.466 0.269 0.873 0.629 1.196 1.059s0.557 0.92 0.687 1.442c0.13 0.522 0.152 1.065 0.067 1.596s-0.277 1.040-0.563 1.495c-0.551 0.876-1.419 1.505-2.424 1.754s-2.066 0.099-2.963-0.418c-0.896-0.517-1.557-1.362-1.844-2.356s-0.177-2.061 0.306-2.976zM5 12h5.34c-0.355 1.015-0.433 2.107-0.224 3.162s0.696 2.035 1.412 2.838h-0.528c-1.031-0-2.037 0.318-2.88 0.912s-1.482 1.433-1.83 2.404c-0.671-0.27-1.3-0.635-1.866-1.086-1.504-1.21-2.424-2.998-2.424-5.23 0-0.796 0.316-1.559 0.879-2.121s1.326-0.879 2.121-0.879zM21 18c1.031 0 2.037 0.319 2.879 0.912s1.481 1.433 1.829 2.404c0.68-0.278 1.31-0.64 1.868-1.086 1.504-1.21 2.424-2.998 2.424-5.23 0-0.796-0.316-1.559-0.879-2.121s-1.326-0.879-2.121-0.879h-5.34c0.22 0.626 0.34 1.3 0.34 2 0.002 1.476-0.542 2.901-1.528 4h0.528zM23.774 21.856c0.146 0.352 0.226 0.74 0.226 1.144 0 2.232-0.918 4.020-2.424 5.23-1.482 1.19-3.47 1.77-5.576 1.77s-4.094-0.58-5.576-1.77c-1.504-1.21-2.424-2.998-2.424-5.23-0.001-0.394 0.076-0.785 0.226-1.149s0.371-0.696 0.65-0.974c0.279-0.279 0.61-0.5 0.974-0.65s0.755-0.227 1.149-0.226h10c0.594-0 1.175 0.176 1.669 0.507s0.879 0.8 1.105 1.349z"></path>
</symbol>
<symbol id="icon-Group-9" viewBox="0 0 43 32">
<path d="M1.613 9.955l0.323-0.289 2.558 0.569-0.282-2.609 0.328-0.294 0.329 2.975 3.149 0.699-0.328 0.294-2.786-0.607 0.311 2.826-0.323 0.289-0.358-3.192-2.921-0.661z"></path>
<path d="M10.068 9.719c-0.326 0.197-0.656 0.302-0.993 0.314-0.332 0.010-0.645-0.066-0.939-0.226-0.29-0.162-0.531-0.402-0.723-0.72-0.194-0.321-0.299-0.644-0.315-0.967-0.014-0.33 0.055-0.635 0.205-0.918s0.371-0.512 0.664-0.689c0.293-0.177 0.595-0.267 0.909-0.271 0.317-0.006 0.616 0.074 0.898 0.242 0.283 0.161 0.522 0.402 0.716 0.723 0.008 0.012 0.014 0.028 0.020 0.047 0.007 0.012 0.016 0.027 0.026 0.043l-2.85 1.724-0.146-0.241 2.683-1.623-0.053 0.192c-0.148-0.254-0.337-0.446-0.568-0.577-0.229-0.137-0.47-0.205-0.723-0.204-0.255-0.003-0.504 0.069-0.748 0.216-0.239 0.145-0.418 0.332-0.538 0.562-0.118 0.223-0.17 0.469-0.155 0.735 0.013 0.263 0.096 0.522 0.251 0.777l0.034 0.056c0.16 0.264 0.359 0.464 0.599 0.6 0.242 0.13 0.501 0.19 0.776 0.18 0.273-0.013 0.542-0.1 0.806-0.26 0.206-0.125 0.375-0.278 0.508-0.459 0.136-0.184 0.22-0.389 0.252-0.617l0.303 0.096c-0.035 0.258-0.133 0.497-0.292 0.717-0.158 0.214-0.36 0.395-0.608 0.545z"></path>
<path d="M12.243 8.428l-1.129-3.598 0.345-0.108 0.963 3.068 1.602-3.872 0.303-0.095 1.129 3.598-0.345 0.108-0.963-3.068-1.602 3.872-0.303 0.095zM12.533 3.779c-0.28 0.088-0.536 0.087-0.765-0.002-0.227-0.095-0.387-0.275-0.479-0.539l0.255-0.080c0.068 0.186 0.186 0.313 0.354 0.381 0.172 0.067 0.36 0.069 0.562 0.005s0.353-0.171 0.451-0.323c0.103-0.154 0.128-0.325 0.073-0.515l0.262-0.082c0.079 0.268 0.050 0.507-0.086 0.716-0.133 0.203-0.342 0.35-0.627 0.439z"></path>
<path d="M16.488 8.332l0.14-1.245 0.060 0.204c-0.091 0.011-0.171-0.009-0.24-0.059-0.064-0.051-0.101-0.119-0.111-0.205s0.010-0.161 0.061-0.225c0.056-0.065 0.124-0.102 0.205-0.111 0.091-0.011 0.166 0.012 0.226 0.068 0.064 0.051 0.101 0.117 0.11 0.198 0.004 0.033 0.005 0.067 0.005 0.101s-0.004 0.068-0.010 0.103-0.013 0.079-0.021 0.133l-0.167 1.008-0.258 0.030z"></path>
<path d="M22.507 7.627l0.288-1.357 0.060 0.101-1.307-0.278c-0.462-0.098-0.801-0.274-1.018-0.527-0.211-0.257-0.276-0.581-0.192-0.972 0.088-0.415 0.293-0.694 0.614-0.837s0.71-0.167 1.167-0.070l1.498 0.319-0.784 3.689-0.325-0.069zM19.793 7.050l1.327-1.203 0.375 0.080-1.313 1.206-0.389-0.083zM22.817 6.171l0.431-2.028 0.055 0.123-1.23-0.261c-0.377-0.080-0.684-0.069-0.923 0.033s-0.393 0.318-0.463 0.648c-0.128 0.603 0.189 0.986 0.953 1.148l1.272 0.27-0.096 0.068z"></path>
<path d="M26.602 7.328l0.169-0.278 1.586 0.966-0.169 0.278-1.586-0.966z"></path>
<path d="M36.028 11.438l0.228 0.289-3.969 3.135-0.228-0.289 3.969-3.135zM29.964 11.92l-0.228-0.289 3.969-3.135 0.228 0.289-3.969 3.135zM33.974 13.116l-2.15-2.721 0.255-0.202 2.15 2.721-0.255 0.202z"></path>
<path d="M33.983 18.415l0.794-0.329 0.115-0.063 1.308-0.542c0.325-0.134 0.535-0.326 0.63-0.574 0.097-0.244 0.076-0.534-0.064-0.873-0.099-0.24-0.235-0.448-0.406-0.622-0.165-0.172-0.342-0.304-0.532-0.397l0.171-0.266c0.228 0.109 0.434 0.268 0.62 0.478 0.19 0.208 0.341 0.445 0.451 0.712 0.179 0.432 0.207 0.808 0.085 1.13s-0.399 0.572-0.831 0.751l-2.21 0.915-0.133-0.32zM33.437 17.171c-0.107-0.258-0.16-0.5-0.159-0.724 0.007-0.222 0.065-0.415 0.174-0.58 0.111-0.161 0.264-0.281 0.46-0.363 0.178-0.074 0.355-0.1 0.53-0.079 0.182 0.024 0.357 0.113 0.525 0.267 0.173 0.153 0.325 0.389 0.458 0.71l0.531 1.282-0.26 0.108-0.528-1.275c-0.149-0.36-0.321-0.587-0.515-0.678-0.192-0.087-0.389-0.089-0.589-0.006-0.223 0.092-0.365 0.25-0.429 0.475s-0.032 0.49 0.095 0.797c0.122 0.294 0.291 0.513 0.507 0.658 0.218 0.149 0.475 0.221 0.769 0.213l-0.188 0.187c-0.292 0.012-0.561-0.065-0.806-0.229-0.239-0.162-0.43-0.416-0.574-0.763z"></path>
<path d="M35.119 22.61l3.236-0.49-0.294-1.943-0.935 0.098c-0.263 0.030-0.528 0.053-0.793 0.069-0.261 0.015-0.505 0.013-0.732-0.006-0.222-0.020-0.407-0.067-0.555-0.142-0.147-0.070-0.239-0.178-0.276-0.324l0.024-0.369c0.014 0.154 0.087 0.269 0.221 0.347 0.138 0.076 0.316 0.125 0.534 0.146s0.459 0.023 0.724 0.007c0.271-0.012 0.546-0.032 0.824-0.059l1.236-0.136 0.397 2.622-3.557 0.539-0.054-0.357zM33.526 19.526l1.243-0.188 0.638 4.207-1.243 0.188-0.051-0.336 0.929-0.141-0.535-3.529-0.929 0.141-0.052-0.343z"></path>
<path d="M34.16 27.393l1.38 0.14-0.094 0.070 0.135-1.33c0.048-0.47 0.186-0.826 0.414-1.069 0.232-0.238 0.547-0.336 0.945-0.296 0.422 0.043 0.721 0.216 0.898 0.52s0.242 0.688 0.195 1.153l-0.155 1.524-3.752-0.382 0.034-0.331zM34.441 24.633l1.339 1.189-0.039 0.381-1.34-1.175 0.040-0.395zM35.64 27.543l2.063 0.21-0.116 0.068 0.127-1.251c0.039-0.383-0.005-0.688-0.132-0.914s-0.358-0.356-0.694-0.39c-0.613-0.062-0.96 0.295-1.039 1.071l-0.132 1.294-0.078-0.088z"></path>
<path d="M35.615 29.839l3.594 0.295-0.043 0.417-3.579-0.439 0.028-0.273zM34.127 29.824c0.008-0.081 0.044-0.148 0.108-0.2 0.068-0.051 0.141-0.073 0.217-0.065 0.081 0.008 0.148 0.044 0.2 0.108s0.073 0.136 0.065 0.217c-0.009 0.086-0.045 0.155-0.108 0.207s-0.136 0.073-0.217 0.065c-0.077-0.008-0.143-0.044-0.2-0.108-0.052-0.063-0.073-0.138-0.064-0.224z"></path>
</symbol>
<symbol id="icon-Group-10" viewBox="0 0 26 32">
<path d="M7.546 27.723l-1.6-0.168 0.114-0.098-0.171 1.627c-0.039 0.368-0.136 0.679-0.291 0.933-0.155 0.25-0.36 0.433-0.615 0.548-0.255 0.111-0.55 0.149-0.886 0.113-0.358-0.038-0.652-0.144-0.882-0.32-0.233-0.181-0.399-0.414-0.498-0.699-0.098-0.29-0.128-0.619-0.089-0.987l0.189-1.797 4.765 0.501-0.037 0.347zM7.201 31.004l-1.545-1.339 0.039-0.368 1.546 1.333-0.039 0.374zM5.858 27.546l-2.873-0.302 0.12-0.097-0.161 1.532c-0.050 0.477 0.024 0.858 0.224 1.145s0.519 0.454 0.959 0.5c0.418 0.044 0.755-0.042 1.011-0.258 0.253-0.221 0.404-0.57 0.454-1.047l0.168-1.593 0.097 0.12z"></path>
<path d="M6.767 23.87l-0.29-0.104 0.595-1.655 0.29 0.104-0.595 1.655z"></path>
<path d="M11.361 18.136c-0.186 0.303-0.409 0.555-0.67 0.753-0.262 0.192-0.545 0.327-0.849 0.403s-0.612 0.090-0.925 0.043c-0.317-0.050-0.626-0.167-0.925-0.35s-0.542-0.404-0.726-0.662c-0.188-0.26-0.318-0.543-0.388-0.848-0.067-0.309-0.073-0.623-0.017-0.942 0.052-0.321 0.171-0.633 0.357-0.937 0.176-0.288 0.388-0.528 0.634-0.719 0.248-0.196 0.523-0.325 0.823-0.387l0.078 0.305c-0.278 0.070-0.52 0.19-0.725 0.358-0.207 0.162-0.383 0.362-0.528 0.6-0.16 0.261-0.264 0.531-0.313 0.812-0.046 0.277-0.039 0.549 0.022 0.816 0.063 0.264 0.175 0.509 0.336 0.736 0.163 0.223 0.373 0.413 0.63 0.571s0.522 0.258 0.794 0.302c0.275 0.040 0.544 0.029 0.808-0.035 0.266-0.067 0.512-0.184 0.737-0.351 0.228-0.171 0.422-0.387 0.581-0.647 0.145-0.237 0.246-0.484 0.3-0.739 0.053-0.262 0.046-0.534-0.022-0.816l0.307-0.069c0.081 0.296 0.093 0.6 0.035 0.912-0.059 0.306-0.177 0.603-0.354 0.891z"></path>
<path d="M14.096 14.387l-0.627-0.52-0.104-0.068-1.033-0.856c-0.256-0.213-0.51-0.304-0.76-0.274-0.247 0.026-0.481 0.173-0.703 0.44-0.157 0.19-0.271 0.395-0.341 0.615-0.071 0.214-0.103 0.421-0.098 0.622l-0.299-0.026c-0.009-0.239 0.033-0.483 0.126-0.731 0.090-0.251 0.222-0.483 0.397-0.693 0.283-0.341 0.586-0.531 0.909-0.571s0.656 0.081 0.996 0.364l1.744 1.446-0.21 0.253zM13.296 15.395c-0.169 0.204-0.348 0.355-0.536 0.453-0.189 0.092-0.377 0.129-0.563 0.111-0.184-0.022-0.352-0.097-0.507-0.225-0.141-0.117-0.241-0.253-0.301-0.409-0.061-0.163-0.063-0.349-0.008-0.558 0.051-0.212 0.182-0.445 0.392-0.698l0.839-1.012 0.205 0.17-0.835 1.006c-0.236 0.285-0.349 0.528-0.34 0.732 0.012 0.2 0.097 0.365 0.255 0.496 0.176 0.146 0.371 0.195 0.588 0.149s0.425-0.19 0.626-0.433c0.192-0.232 0.301-0.47 0.327-0.716 0.029-0.249-0.025-0.495-0.161-0.738l0.24 0.075c0.139 0.24 0.194 0.499 0.165 0.777-0.030 0.272-0.158 0.545-0.385 0.819z"></path>
<path d="M16.906 11.131l0.005 0.131-2.208-2.551 0.259-0.224 2.208 2.551-0.145-0.010 1.573-1.362-0.005 0.14-2.208-2.551 0.259-0.224 2.338 2.702-3.633 3.145-2.338-2.702 0.259-0.224 2.208 2.551-0.14-0.015 1.568-1.357z"></path>
<path d="M22.123 7.723l-0.425-0.695-0.076-0.098-0.7-1.144c-0.174-0.284-0.384-0.453-0.63-0.505-0.242-0.055-0.511 0.008-0.807 0.189-0.21 0.129-0.384 0.286-0.522 0.472-0.136 0.18-0.234 0.365-0.293 0.557l-0.275-0.121c0.069-0.229 0.187-0.446 0.356-0.651 0.166-0.209 0.366-0.385 0.6-0.528 0.378-0.231 0.726-0.313 1.045-0.246s0.594 0.289 0.825 0.667l1.182 1.933-0.28 0.171zM21.040 8.418c-0.226 0.138-0.444 0.223-0.654 0.256-0.209 0.026-0.398 0-0.569-0.077-0.167-0.080-0.302-0.206-0.407-0.377-0.095-0.156-0.146-0.317-0.152-0.485-0.005-0.174 0.053-0.351 0.173-0.531 0.117-0.184 0.316-0.362 0.596-0.533l1.121-0.686 0.139 0.228-1.115 0.682c-0.315 0.193-0.501 0.387-0.558 0.582-0.053 0.193-0.026 0.377 0.081 0.552 0.119 0.195 0.288 0.305 0.508 0.331s0.463-0.043 0.732-0.207c0.257-0.157 0.437-0.348 0.541-0.572 0.108-0.226 0.136-0.477 0.086-0.751l0.203 0.149c0.054 0.272 0.022 0.535-0.095 0.788-0.116 0.248-0.326 0.464-0.63 0.65z"></path>
<path d="M23.201 5.584l-1.539-3.050 0.358-0.172 1.416 3.109-0.235 0.113zM23.925 6.793c-0.070 0.034-0.141 0.037-0.214 0.012-0.075-0.030-0.128-0.078-0.16-0.143-0.034-0.070-0.038-0.141-0.012-0.215s0.073-0.126 0.143-0.16c0.074-0.036 0.148-0.040 0.221-0.015s0.126 0.074 0.16 0.143c0.032 0.066 0.035 0.137 0.012 0.215-0.026 0.073-0.076 0.127-0.15 0.163z"></path>
</symbol>
<symbol id="icon-material-symbols_help" viewBox="0 0 32 32">
<path fill="#53593b" style="fill: var(--color1, #53593b)" d="M15.933 24c0.467 0 0.861-0.161 1.184-0.484s0.484-0.717 0.483-1.183c0-0.467-0.161-0.861-0.483-1.184s-0.716-0.484-1.184-0.483c-0.467 0-0.861 0.161-1.183 0.484s-0.483 0.717-0.484 1.183c0 0.467 0.161 0.861 0.484 1.184s0.717 0.484 1.183 0.483zM14.733 18.867h2.467c0-0.733 0.084-1.311 0.251-1.733s0.639-1 1.416-1.733c0.578-0.578 1.033-1.128 1.367-1.651s0.5-1.15 0.5-1.883c0-1.244-0.456-2.2-1.367-2.867s-1.989-1-3.233-1c-1.267 0-2.295 0.333-3.084 1s-1.339 1.467-1.649 2.4l2.2 0.867c0.111-0.4 0.361-0.833 0.751-1.3s0.984-0.7 1.783-0.7c0.711 0 1.244 0.195 1.6 0.584s0.533 0.817 0.533 1.283c0 0.444-0.133 0.861-0.4 1.251s-0.6 0.75-1 1.083c-0.978 0.867-1.578 1.522-1.8 1.967s-0.333 1.256-0.333 2.433zM16 29.333c-1.844 0-3.578-0.35-5.2-1.051s-3.033-1.65-4.233-2.849c-1.2-1.2-2.15-2.611-2.849-4.233s-1.050-3.356-1.051-5.2c0-1.844 0.35-3.578 1.051-5.2s1.65-3.033 2.849-4.233c1.2-1.2 2.611-2.15 4.233-2.849s3.356-1.050 5.2-1.051c1.844 0 3.578 0.35 5.2 1.051s3.033 1.65 4.233 2.849c1.2 1.2 2.15 2.611 2.851 4.233s1.050 3.356 1.049 5.2c0 1.844-0.35 3.578-1.051 5.2s-1.65 3.033-2.849 4.233c-1.2 1.2-2.611 2.15-4.233 2.851s-3.356 1.050-5.2 1.049z"></path>
</symbol>
<symbol id="icon-present" viewBox="0 0 32 32">
<path fill="#53593b" style="fill: var(--color1, #53593b)" d="M12.080 2.573c-2.52-0.013-4.973 2.413-3.853 5.427h-4.227c-0.707 0-1.386 0.281-1.886 0.781s-0.781 1.178-0.781 1.886v2.667c0 0.354 0.14 0.693 0.391 0.943s0.589 0.391 0.943 0.391h12v-4h2.667v4h12c0.354 0 0.693-0.141 0.943-0.391s0.391-0.589 0.391-0.943v-2.667c0-0.707-0.281-1.386-0.781-1.886s-1.178-0.781-1.886-0.781h-4.227c1.56-4.36-4.307-7.44-7.013-3.68l-0.76 1.013-0.76-1.040c-0.84-1.187-2-1.707-3.16-1.72zM12 5.333c1.187 0 1.787 1.44 0.947 2.28s-2.28 0.24-2.28-0.947c0-0.354 0.14-0.693 0.391-0.943s0.589-0.391 0.943-0.391zM20 5.333c1.187 0 1.787 1.44 0.947 2.28s-2.28 0.24-2.28-0.947c0-0.354 0.141-0.693 0.391-0.943s0.589-0.391 0.943-0.391zM2.667 16v10.667c0 0.707 0.281 1.385 0.781 1.886s1.178 0.781 1.886 0.781h21.333c0.707 0 1.385-0.281 1.886-0.781s0.781-1.178 0.781-1.886v-10.667h-12v10.667h-2.667v-10.667h-12z"></path>
</symbol>
<symbol id="icon-mingcute_sale-fill" viewBox="0 0 32 32">
<path fill="#53593b" style="fill: var(--color1, #53593b)" d="M12.54 3.863c0.927-0.79 2.097-1.239 3.315-1.272s2.41 0.352 3.379 1.091l0.227 0.181 0.501 0.427c0.365 0.311 0.807 0.519 1.28 0.6l0.237 0.029 0.657 0.053c1.218 0.097 2.365 0.609 3.251 1.451s1.455 1.962 1.613 3.173l0.028 0.267 0.053 0.659c0.038 0.478 0.204 0.937 0.48 1.328l0.147 0.189 0.429 0.501c0.79 0.927 1.239 2.097 1.272 3.315s-0.352 2.41-1.091 3.379l-0.181 0.227-0.428 0.501c-0.311 0.365-0.519 0.807-0.6 1.28l-0.029 0.237-0.052 0.657c-0.097 1.218-0.609 2.365-1.451 3.251s-1.962 1.455-3.173 1.613l-0.268 0.028-0.657 0.053c-0.478 0.038-0.937 0.204-1.328 0.48l-0.189 0.148-0.503 0.427c-0.927 0.79-2.097 1.239-3.314 1.273s-2.41-0.351-3.379-1.090l-0.225-0.181-0.501-0.428c-0.365-0.311-0.807-0.519-1.28-0.6l-0.237-0.028-0.657-0.053c-1.218-0.097-2.365-0.609-3.25-1.451s-1.455-1.962-1.614-3.173l-0.028-0.267-0.053-0.659c-0.038-0.478-0.204-0.937-0.48-1.328l-0.148-0.189-0.428-0.503c-0.79-0.927-1.239-2.097-1.272-3.315s0.352-2.41 1.091-3.379l0.181-0.225 0.427-0.501c0.311-0.365 0.519-0.807 0.6-1.28l0.029-0.237 0.053-0.657c0.097-1.218 0.609-2.365 1.451-3.25s1.962-1.455 3.173-1.614l0.267-0.028 0.659-0.053c0.478-0.038 0.937-0.204 1.328-0.48l0.189-0.148 0.501-0.428zM19.333 17.333c-0.53 0-1.039 0.211-1.414 0.586s-0.586 0.884-0.586 1.414 0.211 1.039 0.586 1.414c0.375 0.375 0.884 0.586 1.414 0.586s1.039-0.211 1.414-0.586c0.375-0.375 0.586-0.884 0.586-1.414s-0.211-1.039-0.586-1.414c-0.375-0.375-0.884-0.586-1.414-0.586zM19.057 11.057l-8 8c-0.127 0.123-0.229 0.27-0.299 0.433s-0.107 0.338-0.108 0.515c-0.002 0.177 0.032 0.353 0.099 0.517s0.166 0.313 0.291 0.438c0.125 0.125 0.274 0.224 0.438 0.291s0.339 0.101 0.516 0.099c0.177-0.002 0.352-0.038 0.515-0.108s0.31-0.171 0.433-0.299l8-8c0.243-0.251 0.377-0.588 0.374-0.938s-0.143-0.684-0.391-0.931c-0.247-0.247-0.582-0.387-0.931-0.39s-0.686 0.131-0.938 0.374zM12.667 10.667c-0.53 0-1.039 0.211-1.414 0.586s-0.586 0.884-0.586 1.414c0 0.53 0.211 1.039 0.586 1.414s0.884 0.586 1.414 0.586c0.53 0 1.039-0.211 1.414-0.586s0.586-0.884 0.586-1.414c0-0.53-0.211-1.039-0.586-1.414s-0.884-0.586-1.414-0.586z"></path>
</symbol>
<symbol id="icon-ph_certificate-fill" viewBox="0 0 32 32">
<path fill="#53593b" style="fill: var(--color1, #53593b)" d="M29 11.107v-4.107c0-0.53-0.211-1.039-0.586-1.414s-0.884-0.586-1.414-0.586h-22c-0.53 0-1.039 0.211-1.414 0.586s-0.586 0.884-0.586 1.414v16c0 0.53 0.211 1.039 0.586 1.414s0.884 0.586 1.414 0.586h14v3c-0 0.171 0.043 0.338 0.126 0.487s0.203 0.274 0.348 0.364c0.145 0.090 0.311 0.141 0.481 0.149s0.34-0.028 0.492-0.105l3.553-1.777 3.553 1.777c0.153 0.076 0.322 0.112 0.492 0.105s0.336-0.059 0.481-0.149c0.145-0.090 0.265-0.215 0.348-0.364s0.127-0.317 0.126-0.487v-7.107c1.282-1.306 2-3.063 2-4.893s-0.718-3.587-2-4.893zM16 18h-7c-0.265 0-0.52-0.105-0.707-0.293s-0.293-0.442-0.293-0.707 0.105-0.52 0.293-0.707c0.188-0.188 0.442-0.293 0.707-0.293h7c0.265 0 0.52 0.105 0.707 0.293s0.293 0.442 0.293 0.707-0.105 0.52-0.293 0.707c-0.187 0.188-0.442 0.293-0.707 0.293zM16 14h-7c-0.265 0-0.52-0.105-0.707-0.293s-0.293-0.442-0.293-0.707 0.105-0.52 0.293-0.707c0.188-0.188 0.442-0.293 0.707-0.293h7c0.265 0 0.52 0.105 0.707 0.293s0.293 0.442 0.293 0.707-0.105 0.52-0.293 0.707c-0.187 0.188-0.442 0.293-0.707 0.293zM27 26.383l-2.553-1.278c-0.139-0.069-0.292-0.106-0.447-0.106s-0.309 0.036-0.447 0.106l-2.553 1.278v-4.059c0.937 0.445 1.962 0.676 3 0.676s2.063-0.231 3-0.676v4.059zM24 21c-0.989 0-1.956-0.293-2.778-0.843s-1.463-1.33-1.841-2.244c-0.379-0.914-0.477-1.919-0.285-2.889s0.669-1.861 1.368-2.56c0.699-0.699 1.59-1.175 2.56-1.368s1.975-0.094 2.889 0.285c0.914 0.378 1.695 1.019 2.244 1.842s0.843 1.789 0.843 2.778c0 1.326-0.527 2.598-1.464 3.536s-2.209 1.464-3.536 1.464z"></path>
</symbol>
<symbol id="icon-Star" viewBox="0 0 32 32">
<path fill="#53593b" style="fill: var(--color1, #53593b)" d="M16 0l4.321 11.679 11.679 4.321-11.679 4.321-4.321 11.679-4.321-11.679-11.679-4.321 11.679-4.321 4.321-11.679z"></path>
</symbol>
<symbol id="icon-Star-big" viewBox="0 0 32 32">
<path fill="#53593b" style="fill: var(--color1, #53593b)" d="M16 0l4.321 11.679 11.679 4.321-11.679 4.321-4.321 11.679-4.321-11.679-11.679-4.321 11.679-4.321 4.321-11.679z"></path>
</symbol>
<symbol id="icon-Vector-1" viewBox="0 0 36 32">
<path fill="#f7da6e" style="fill: var(--color2, #f7da6e)" d="M18.501 0.238c3.374 0.39 6.399 1.831 9.198 3.738 2.871 1.956 5.824 4.081 7.030 7.32 1.23 3.305 0.906 7.051-0.473 10.298-1.31 3.084-4.024 5.248-6.885 7.025-2.692 1.671-5.716 2.382-8.869 2.755-3.584 0.423-7.454 1.375-10.552-0.46-3.184-1.886-4.393-5.718-5.692-9.162-1.359-3.602-2.935-7.369-1.946-11.088 1.015-3.816 3.845-7.033 7.292-9.008 3.251-1.864 7.168-1.848 10.899-1.418z"></path>
</symbol>
<symbol id="icon-Vector-2" viewBox="0 0 37 32">
<path fill="#f7da6e" style="fill: var(--color2, #f7da6e)" d="M19.441 0.238c3.546 0.39 6.724 1.831 9.665 3.738 3.017 1.956 6.12 4.081 7.387 7.32 1.293 3.305 0.953 7.051-0.497 10.298-1.377 3.084-4.228 5.248-7.235 7.025-2.828 1.671-6.006 2.382-9.32 2.755-3.766 0.424-7.833 1.375-11.089-0.459-3.346-1.886-4.617-5.718-5.982-9.162-1.428-3.602-3.085-7.369-2.045-11.088 1.067-3.816 4.040-7.033 7.662-9.008 3.417-1.864 7.532-1.848 11.453-1.418z"></path>
</symbol>
<symbol id="icon-Vector-3" viewBox="0 0 33 32">
<path fill="#f9d873" style="fill: var(--color3, #f9d873)" d="M16.218 0.148c4.486 0.336 8.615 2.122 11.589 5.498 3.191 3.623 6.511 8.494 4.662 12.954-1.754 4.23-8.057 2.765-12.082 4.947-4.579 2.482-7.295 9.633-12.325 8.285-5.148-1.38-5.951-8.255-7.034-13.474-1.046-5.039-2.094-10.674 1.203-14.626 3.244-3.889 8.938-3.962 13.988-3.584z"></path>
</symbol>
<symbol id="icon-cursor" viewBox="0 0 32 32">
<path stroke-linejoin="miter" stroke-linecap="round" stroke-miterlimit="4" stroke-width="2.1333" d="M10.133 29.867c-1.067 0.533-4.459-16.903-8-27.733 10.831 3.541 27.022 8 27.733 9.067s-9.6 4.267-9.6 4.267c0 0 10.025 4.589 7.467 9.067-0.987 1.728-1.819 2.56-3.2 3.2-4.679 2.168-9.6-6.933-9.6-6.933s-3.733 8.533-4.8 9.067z"></path>
</symbol>
<symbol id='petal-s' >
  <path d="M1.0194 6.83769C1.88922 15.3023 10.5114 12.8466 18.3762 1.7868C18.3762 1.7868 18.9629 0.768048 17.9377 1.08131C16.9124 1.39457 0.14957 -1.6269 1.0194 6.83769Z" fill="#59613D" stroke="#59613D"/>
</symbol>
<symbol id='petal-m' >
  <path d="M7.92132 1.49996C-6.07825 6.49992 2.02749 19.1901 24.4212 26.9999C24.4212 26.9999 26.4212 27.4999 25.4212 25.9999C24.4212 24.5 21.9209 -3.5 7.92132 1.49996Z" fill="#59613D" stroke="#59613D"/>
</symbol>
<symbol id='petal-l' >
  <path d="M19.0295 3.34884C1.75601 -5.93198 -4.08533 13.4595 7.47644 42.5231C7.47644 42.5231 8.70985 44.9411 9.36377 42.6078C10.0177 40.2745 36.3031 12.6297 19.0295 3.34884Z" fill="#59613D" stroke="#59613D"/>
</symbol>
<symbol id='burger' width="24" height="24" viewBox="0 0 24 24" fill="none">
  <path d="M3 6H21M3 12H21M3 18H21" stroke="black" stroke-width="2" stroke-linecap="round" stroke-linejoin="round"/>
</symbol>
</defs>
</svg>
