<svg aria-hidden="true" style="position: absolute; width: 0; height: 0; overflow: hidden;" version="1.1" xmlns="http://www.w3.org/2000/svg" xmlns:xlink="http://www.w3.org/1999/xlink">
<defs>
<symbol id="icon-news" viewBox="0 0 24 32">
<path stroke-linejoin="miter" stroke-linecap="round" stroke-miterlimit="4" stroke-width="1.8462" d="M21.178 30.761c-18.373-8.969-28.255-25.531-11.947-29.838"></path>
<path stroke-linejoin="miter" stroke-linecap="square" stroke-miterlimit="4" stroke-width="1.8462" d="M21.857 30.454l0.615-1.846"></path>
</symbol>
<symbol id="icon-instagram" viewBox="0 0 32 32">
<path d="M16 11.834c-2.294 0-4.166 1.872-4.166 4.166s1.872 4.166 4.166 4.166c2.294 0 4.166-1.872 4.166-4.166s-1.872-4.166-4.166-4.166zM28.494 16c0-1.725 0.016-3.434-0.081-5.156-0.097-2-0.553-3.775-2.016-5.237-1.466-1.466-3.238-1.919-5.238-2.016-1.725-0.097-3.434-0.081-5.156-0.081-1.725 0-3.434-0.016-5.156 0.081-2 0.097-3.775 0.553-5.237 2.016-1.466 1.466-1.919 3.237-2.016 5.237-0.097 1.725-0.081 3.434-0.081 5.156s-0.016 3.434 0.081 5.156c0.097 2 0.553 3.775 2.016 5.238 1.466 1.466 3.237 1.919 5.237 2.016 1.725 0.097 3.434 0.081 5.156 0.081 1.725 0 3.434 0.016 5.156-0.081 2-0.097 3.775-0.553 5.238-2.016 1.466-1.466 1.919-3.238 2.016-5.238 0.1-1.722 0.081-3.431 0.081-5.156zM16 22.409c-3.547 0-6.409-2.862-6.409-6.409s2.862-6.409 6.409-6.409c3.547 0 6.409 2.862 6.409 6.409s-2.862 6.409-6.409 6.409zM22.672 10.825c-0.828 0-1.497-0.669-1.497-1.497s0.669-1.497 1.497-1.497c0.828 0 1.497 0.669 1.497 1.497 0 0.197-0.038 0.391-0.113 0.573s-0.185 0.347-0.324 0.486c-0.139 0.139-0.304 0.249-0.486 0.324s-0.377 0.114-0.573 0.113z"></path>
</symbol>
<symbol id="icon-circle" viewBox="0 0 32 32">
<path d="M32 16c0 8.837-7.163 16-16 16s-16-7.163-16-16c0-8.837 7.163-16 16-16s16 7.163 16 16z"></path>
</symbol>
<symbol id="icon-elips" viewBox="0 0 68 32">
<path d="M13.946 1.27l42.764 4.856c6.178 0.702 10.618 6.279 9.916 12.457l-0.218 1.923c-0.702 6.178-6.279 10.618-12.457 9.916l-42.764-4.856c-6.178-0.702-10.618-6.279-9.916-12.457l0.218-1.923c0.702-6.178 6.279-10.618 12.457-9.916z"></path>
<path d="M10.157 16.073l0.501-4.41 1.082 0.123 1.42 3.332-0.429-0.049 2.222-2.918 0.966 0.11-0.493 4.411-0.933-0.106 0.375-3.303 0.153 0.126-1.962 2.546-0.446-0.051-1.341-2.996 0.204-0.027-0.377 3.32-0.941-0.107zM16.811 16.828l0.501-4.41 1.032 0.117-0.501 4.41-1.032-0.117zM17.915 11.75c-0.193-0.022-0.346-0.101-0.458-0.236-0.107-0.135-0.151-0.288-0.132-0.458 0.020-0.176 0.097-0.315 0.231-0.417 0.14-0.107 0.307-0.149 0.5-0.127s0.343 0.098 0.451 0.227c0.114 0.124 0.162 0.272 0.142 0.443-0.021 0.182-0.099 0.329-0.234 0.442-0.135 0.107-0.301 0.15-0.5 0.127zM19.239 17.104l0.501-4.41 1.032 0.117-0.203 1.792 2.222 0.252 0.203-1.792 1.032 0.117-0.501 4.41-1.032-0.117 0.198-1.743-2.222-0.252-0.198 1.743-1.032-0.117zM24.908 17.748l0.501-4.41 1.032 0.117-0.501 4.41-1.032-0.117zM26.012 12.67c-0.193-0.022-0.345-0.101-0.458-0.236-0.107-0.135-0.151-0.288-0.132-0.458 0.020-0.176 0.097-0.315 0.231-0.417 0.14-0.107 0.307-0.149 0.5-0.127s0.343 0.098 0.451 0.227c0.114 0.124 0.162 0.272 0.142 0.443-0.021 0.182-0.099 0.329-0.234 0.442-0.135 0.107-0.301 0.15-0.5 0.127zM31.619 18.568c-0.462-0.053-0.864-0.196-1.206-0.43-0.335-0.239-0.586-0.541-0.75-0.905s-0.223-0.764-0.173-1.199c0.050-0.44 0.196-0.817 0.438-1.13 0.242-0.318 0.554-0.553 0.933-0.705 0.385-0.151 0.809-0.201 1.272-0.148 0.429 0.049 0.797 0.18 1.101 0.393 0.311 0.208 0.533 0.49 0.665 0.845l-0.845 0.372c-0.108-0.224-0.253-0.397-0.435-0.518-0.176-0.12-0.374-0.193-0.594-0.218-0.253-0.029-0.488 0-0.704 0.087s-0.394 0.229-0.533 0.425c-0.139 0.191-0.224 0.429-0.257 0.715s-0.003 0.541 0.089 0.763c0.093 0.217 0.234 0.392 0.426 0.525s0.413 0.214 0.667 0.243c0.22 0.025 0.43-0.001 0.628-0.079 0.204-0.077 0.384-0.213 0.54-0.407l0.74 0.553c-0.208 0.311-0.488 0.538-0.839 0.683-0.345 0.139-0.732 0.185-1.161 0.136zM36.402 19.112c-0.49-0.056-0.908-0.201-1.256-0.435-0.341-0.239-0.594-0.541-0.759-0.906-0.159-0.364-0.214-0.763-0.165-1.198 0.050-0.44 0.19-0.818 0.421-1.132 0.237-0.319 0.537-0.555 0.9-0.709 0.369-0.153 0.773-0.205 1.214-0.155 0.429 0.049 0.801 0.186 1.116 0.411s0.549 0.52 0.703 0.883c0.154 0.363 0.205 0.776 0.152 1.239-0.005 0.044-0.013 0.093-0.025 0.148-0.006 0.055-0.015 0.107-0.026 0.156l-3.675-0.417 0.078-0.685 3.13 0.355-0.429 0.169c0.034-0.253 0.007-0.482-0.081-0.687s-0.222-0.374-0.403-0.506c-0.175-0.131-0.386-0.211-0.634-0.239-0.253-0.029-0.483 0.001-0.688 0.089-0.2 0.089-0.366 0.226-0.498 0.412-0.126 0.181-0.205 0.403-0.235 0.668l-0.019 0.165c-0.030 0.264 0.004 0.505 0.102 0.723s0.251 0.394 0.459 0.529c0.208 0.135 0.455 0.219 0.741 0.251 0.248 0.028 0.475 0.015 0.682-0.040s0.397-0.156 0.57-0.303l0.481 0.699c-0.224 0.209-0.495 0.359-0.813 0.451-0.311 0.087-0.659 0.109-1.045 0.065zM42.049 19.753c-0.358-0.041-0.676-0.16-0.955-0.359-0.273-0.198-0.479-0.473-0.618-0.823-0.133-0.355-0.17-0.789-0.112-1.301 0.059-0.518 0.19-0.932 0.392-1.244 0.208-0.311 0.467-0.53 0.777-0.656 0.311-0.132 0.653-0.177 1.027-0.134 0.435 0.049 0.807 0.186 1.116 0.411 0.315 0.225 0.549 0.517 0.704 0.875 0.16 0.358 0.214 0.766 0.163 1.223s-0.197 0.845-0.433 1.164c-0.231 0.314-0.525 0.546-0.882 0.695-0.352 0.15-0.745 0.2-1.18 0.15zM39.429 21.019l0.683-6.012 0.983 0.112-0.118 1.041-0.166 1.169-0.051 1.182-0.298 2.626-1.032-0.117zM42.033 18.856c0.248 0.028 0.474-0.002 0.679-0.090 0.211-0.088 0.386-0.23 0.525-0.426s0.225-0.435 0.257-0.715c0.032-0.286 0.002-0.538-0.090-0.755-0.092-0.222-0.231-0.4-0.416-0.532-0.18-0.132-0.394-0.212-0.642-0.24s-0.477 0.002-0.688 0.089c-0.211 0.088-0.386 0.229-0.525 0.426-0.139 0.191-0.224 0.429-0.257 0.715-0.032 0.281-0.002 0.532 0.090 0.755s0.231 0.4 0.416 0.532c0.186 0.133 0.402 0.213 0.65 0.241zM45.321 20.066l0.501-4.41 1.032 0.117-0.501 4.41-1.033-0.117zM46.425 14.988c-0.193-0.022-0.345-0.101-0.458-0.236-0.107-0.135-0.151-0.288-0.132-0.458 0.020-0.176 0.097-0.315 0.231-0.417 0.14-0.107 0.307-0.149 0.5-0.127s0.343 0.098 0.451 0.227c0.114 0.124 0.162 0.272 0.142 0.443-0.021 0.182-0.099 0.329-0.234 0.442-0.135 0.107-0.301 0.15-0.5 0.127zM50.424 20.645l0.101-0.892-0.036-0.197 0.177-1.561c0.034-0.303-0.030-0.547-0.193-0.733-0.163-0.191-0.428-0.308-0.797-0.35-0.248-0.028-0.497-0.017-0.748 0.032-0.246 0.050-0.459 0.135-0.64 0.254l-0.319-0.797c0.257-0.155 0.554-0.258 0.889-0.309 0.341-0.056 0.687-0.064 1.040-0.024 0.639 0.073 1.114 0.283 1.426 0.63 0.318 0.343 0.441 0.834 0.368 1.472l-0.294 2.585-0.975-0.111zM49.030 20.546c-0.33-0.038-0.613-0.125-0.848-0.264-0.235-0.144-0.41-0.323-0.525-0.536-0.109-0.219-0.149-0.455-0.12-0.708 0.028-0.248 0.111-0.464 0.249-0.649 0.143-0.184 0.357-0.319 0.64-0.404s0.647-0.102 1.093-0.052l1.28 0.145-0.078 0.685-1.206-0.137c-0.352-0.040-0.596-0.009-0.73 0.093-0.133 0.096-0.21 0.227-0.229 0.392-0.021 0.187 0.036 0.344 0.172 0.471s0.336 0.206 0.601 0.235c0.254 0.029 0.486-0.003 0.697-0.097 0.217-0.092 0.382-0.247 0.496-0.462l0.103 0.639c-0.128 0.247-0.33 0.428-0.605 0.542-0.27 0.114-0.6 0.149-0.991 0.105zM52.033 20.82l0.148-0.862c0.038 0.010 0.073 0.019 0.105 0.029s0.063 0.015 0.090 0.019c0.171 0.019 0.309-0.018 0.414-0.112s0.19-0.227 0.254-0.398c0.070-0.176 0.126-0.373 0.168-0.592 0.047-0.223 0.090-0.447 0.126-0.672l0.268-1.693 3.567 0.405-0.501 4.41-1.032-0.117 0.433-3.815 0.208 0.308-2.098-0.238 0.256-0.264-0.19 1.158c-0.061 0.389-0.135 0.749-0.223 1.079-0.081 0.325-0.186 0.606-0.313 0.843-0.122 0.237-0.276 0.415-0.462 0.533-0.181 0.119-0.401 0.164-0.659 0.134-0.083-0.009-0.172-0.028-0.27-0.056-0.092-0.027-0.188-0.060-0.29-0.1z"></path>
</symbol>
<symbol id="icon-courses-icon" viewBox="0 0 31 32">
<path stroke-linejoin="miter" stroke-linecap="butt" stroke-miterlimit="4" stroke-width="0.3299" d="M24.567 14.351c0 5.102-4.136 9.237-9.237 9.237s-9.237-4.136-9.237-9.237c0-5.102 4.136-9.237 9.237-9.237s9.237 4.136 9.237 9.237z"></path>
<path d="M15.054 17.202c-0.443 0-0.826-0.063-1.148-0.19-0.317-0.127-0.562-0.309-0.736-0.546-0.169-0.243-0.253-0.528-0.253-0.855 0-0.317 0.082-0.586 0.245-0.808 0.169-0.227 0.412-0.401 0.728-0.523 0.322-0.121 0.71-0.182 1.164-0.182 0.449 0 0.834 0.061 1.156 0.182s0.567 0.296 0.736 0.523c0.174 0.222 0.261 0.491 0.261 0.808 0 0.327-0.087 0.612-0.261 0.855-0.174 0.238-0.422 0.42-0.744 0.546s-0.705 0.19-1.148 0.19zM15.054 16.719c0.491 0 0.874-0.1 1.148-0.301 0.28-0.201 0.42-0.472 0.42-0.816s-0.14-0.612-0.42-0.808c-0.274-0.201-0.657-0.301-1.148-0.301s-0.874 0.1-1.148 0.301c-0.274 0.195-0.412 0.464-0.412 0.808s0.137 0.615 0.412 0.816c0.274 0.201 0.657 0.301 1.148 0.301zM15.054 14.423c-0.412 0-0.763-0.055-1.053-0.166-0.285-0.111-0.504-0.269-0.657-0.475-0.153-0.211-0.23-0.462-0.23-0.752 0-0.306 0.079-0.567 0.238-0.784 0.164-0.222 0.391-0.391 0.681-0.507s0.631-0.174 1.021-0.174c0.391 0 0.731 0.058 1.021 0.174 0.296 0.116 0.525 0.285 0.689 0.507 0.164 0.216 0.245 0.478 0.245 0.784 0 0.29-0.077 0.541-0.23 0.752-0.153 0.206-0.377 0.364-0.673 0.475-0.29 0.111-0.641 0.166-1.053 0.166zM15.054 14.043c0.433 0 0.771-0.090 1.013-0.269s0.364-0.42 0.364-0.72c0-0.317-0.127-0.562-0.38-0.736-0.248-0.179-0.581-0.269-0.998-0.269s-0.75 0.090-0.998 0.269c-0.248 0.174-0.372 0.417-0.372 0.728 0 0.306 0.119 0.549 0.356 0.728 0.243 0.179 0.581 0.269 1.013 0.269z"></path>
<path d="M3.969 14.369l-1.958-0.238 0.105-0.865c0.027-0.221 0.090-0.39 0.19-0.507 0.1-0.119 0.232-0.169 0.396-0.149 0.159 0.019 0.275 0.095 0.347 0.228 0.070 0.132 0.093 0.298 0.068 0.496l-0.072-0.062c0.028-0.234 0.093-0.4 0.193-0.499s0.232-0.138 0.397-0.118c0.169 0.021 0.293 0.099 0.373 0.234 0.077 0.133 0.1 0.329 0.069 0.587l-0.108 0.891zM3.791 14.086l0.076-0.623c0.020-0.167 0.009-0.295-0.033-0.386-0.044-0.094-0.126-0.148-0.245-0.162s-0.211 0.013-0.275 0.084c-0.064 0.070-0.106 0.189-0.126 0.356l-0.079 0.649 0.682 0.083zM2.911 13.979l0.072-0.589c0.018-0.152 0.004-0.271-0.044-0.357-0.047-0.089-0.126-0.14-0.235-0.153s-0.196 0.018-0.261 0.093c-0.064 0.073-0.106 0.185-0.124 0.337l-0.072 0.589 0.664 0.081z"></path>
<path d="M4.599 11.351l-1.844-0.699 0.095-0.249 1.844 0.699-0.095 0.249zM2.395 10.371c-0.020 0.052-0.054 0.088-0.102 0.11s-0.097 0.023-0.146 0.005-0.083-0.052-0.103-0.099c-0.022-0.048-0.023-0.098-0.003-0.15s0.052-0.089 0.098-0.111 0.094-0.025 0.143-0.006c0.052 0.020 0.088 0.054 0.11 0.102 0.023 0.046 0.024 0.096 0.003 0.15z"></path>
<path d="M5.254 9.678l-0.178-0.146c0.012-0.013 0.024-0.024 0.037-0.034 0.012-0.013 0.022-0.025 0.029-0.035 0.046-0.066 0.057-0.136 0.035-0.209-0.021-0.075-0.066-0.152-0.134-0.229s-0.151-0.156-0.248-0.235c-0.099-0.081-0.2-0.161-0.3-0.239l-0.559-0.427 0.822-1.19 1.623 1.12-0.152 0.22-1.496-1.033 0.103-0.011-0.61 0.884-0.032-0.1 0.453 0.349c0.136 0.103 0.262 0.207 0.378 0.311 0.118 0.103 0.214 0.204 0.288 0.304 0.076 0.098 0.122 0.194 0.139 0.288 0.015 0.093-0.007 0.182-0.067 0.269-0.017 0.025-0.037 0.049-0.060 0.073-0.021 0.022-0.045 0.045-0.071 0.070z"></path>
<path d="M7.235 5.357c0.187-0.163 0.364-0.246 0.531-0.25 0.169-0.006 0.321 0.067 0.455 0.219 0.139 0.157 0.194 0.325 0.164 0.502-0.028 0.176-0.142 0.35-0.34 0.522l-0.599 0.525-1.308-1.476 0.2-0.177 0.456 0.515 0.441-0.38zM7.899 6.208c0.139-0.119 0.218-0.238 0.237-0.356 0.020-0.121-0.019-0.237-0.117-0.348s-0.204-0.16-0.318-0.15c-0.116 0.009-0.244 0.074-0.384 0.195l-0.39 0.336 0.583 0.658 0.39-0.336z"></path>
<path d="M9.218 5.425l-0.917-1.746 0.236-0.124 0.405 0.772 1.101-0.578-0.405-0.772 0.236-0.124 0.917 1.746-0.236 0.124-0.405-0.772-1.101 0.578 0.405 0.772-0.236 0.124z"></path>
<path d="M11.703 4.215l-0.472-1.915 0.259-0.064 0.375 1.521 0.905-1.837 0.23-0.057 0.472 1.915-0.259 0.064-0.376-1.525-0.901 1.839-0.233 0.058z"></path>
<path d="M14.537 3.629l0.834-1.082-0.004 0.131-0.793-1.022h0.301l0.65 0.845-0.113-0.004 0.65-0.841h0.293l-0.8 1.033 0.004-0.143 0.841 1.082h-0.304l-0.687-0.902 0.105 0.015-0.676 0.887h-0.301z"></path>
<path d="M19.953 4.485l0.917-1.746 0.239 0.126 0.088 1.756-0.1-0.052 1.509-0.918 0.22 0.115-0.917 1.746-0.216-0.114 0.775-1.477 0.033 0.043-1.405 0.85-0.106-0.056-0.099-1.655 0.055 0.016-0.777 1.48-0.216-0.114z"></path>
<path d="M22.894 6.325l1.308-1.476 0.2 0.177-1.308 1.476-0.2-0.177zM24.592 4.612c-0.041-0.037-0.063-0.081-0.067-0.134s0.013-0.099 0.047-0.139c0.035-0.039 0.078-0.060 0.129-0.061 0.053-0.003 0.1 0.013 0.141 0.050s0.064 0.080 0.069 0.132-0.010 0.096-0.045 0.136c-0.037 0.041-0.081 0.063-0.134 0.067-0.051 0.005-0.098-0.012-0.141-0.050z"></path>
<path d="M25.12 8.864c-0.111-0.161-0.176-0.329-0.194-0.505-0.015-0.175 0.015-0.342 0.089-0.5 0.076-0.159 0.194-0.294 0.355-0.405 0.163-0.112 0.331-0.175 0.504-0.188s0.339 0.019 0.495 0.096c0.158 0.079 0.293 0.2 0.404 0.36 0.095 0.138 0.155 0.281 0.178 0.43s0.003 0.291-0.060 0.429l-0.224-0.087c0.044-0.113 0.057-0.224 0.039-0.333s-0.060-0.213-0.127-0.309c-0.080-0.115-0.178-0.201-0.296-0.257-0.116-0.057-0.239-0.080-0.371-0.068s-0.262 0.062-0.389 0.15-0.221 0.192-0.278 0.311c-0.058 0.119-0.082 0.243-0.071 0.373 0.012 0.128 0.059 0.25 0.138 0.366 0.067 0.097 0.148 0.173 0.244 0.228s0.203 0.083 0.322 0.083l0.002 0.241c-0.149 0.009-0.29-0.023-0.423-0.096-0.13-0.074-0.243-0.181-0.339-0.319z"></path>
<path d="M25.959 10.283l1.844-0.699 0.095 0.249-1.626 0.617 0.428 1.128 1.626-0.617 0.095 0.249-1.844 0.699-0.617-1.626zM26.154 12.142l0.467-0.177 0.003 0.071-0.143-0.376 0.218-0.083 0.208 0.548-0.664 0.252-0.089-0.235z"></path>
<path d="M28.227 13.93c0.027 0.246-0.005 0.44-0.096 0.579-0.091 0.142-0.238 0.226-0.439 0.25-0.209 0.025-0.378-0.025-0.506-0.15-0.128-0.123-0.207-0.315-0.237-0.577l-0.092-0.791 1.958-0.238 0.032 0.265-0.682 0.083 0.063 0.579zM27.149 13.992c0.020 0.182 0.072 0.314 0.158 0.397 0.089 0.085 0.206 0.119 0.353 0.101s0.248-0.077 0.304-0.177c0.058-0.1 0.078-0.243 0.058-0.427l-0.055-0.512-0.873 0.106 0.055 0.512z"></path>
<path d="M5.627 30.374c-0.208 0-0.401-0.034-0.578-0.103-0.177-0.071-0.33-0.17-0.459-0.297s-0.231-0.276-0.305-0.447c-0.071-0.172-0.107-0.359-0.107-0.562s0.036-0.391 0.107-0.562c0.074-0.172 0.176-0.321 0.305-0.447 0.132-0.127 0.286-0.224 0.463-0.293 0.177-0.071 0.37-0.107 0.578-0.107 0.201 0 0.389 0.034 0.566 0.103 0.177 0.066 0.326 0.166 0.447 0.301l-0.186 0.186c-0.114-0.116-0.239-0.199-0.376-0.249-0.137-0.053-0.285-0.079-0.443-0.079-0.166 0-0.321 0.029-0.463 0.087-0.143 0.055-0.267 0.136-0.372 0.241-0.106 0.103-0.189 0.224-0.249 0.364-0.058 0.137-0.087 0.289-0.087 0.455s0.029 0.319 0.087 0.459c0.061 0.137 0.144 0.259 0.249 0.364 0.106 0.103 0.23 0.183 0.372 0.241 0.143 0.055 0.297 0.083 0.463 0.083 0.158 0 0.306-0.026 0.443-0.079s0.263-0.137 0.376-0.253l0.186 0.186c-0.121 0.135-0.271 0.236-0.447 0.305s-0.367 0.103-0.57 0.103zM7.52 30.351v-1.908l0.071 0.075h-0.859v-0.245h1.857v0.245h-0.859l0.071-0.075v1.908h-0.281zM10.285 30.351v-0.459l-0.012-0.075v-0.768c0-0.177-0.050-0.313-0.15-0.408-0.098-0.095-0.244-0.142-0.439-0.142-0.135 0-0.263 0.022-0.384 0.067s-0.224 0.104-0.309 0.178l-0.127-0.21c0.106-0.090 0.232-0.158 0.38-0.206 0.148-0.050 0.303-0.075 0.467-0.075 0.269 0 0.476 0.067 0.622 0.202 0.148 0.132 0.222 0.334 0.222 0.606v1.291h-0.269zM9.569 30.37c-0.156 0-0.292-0.025-0.408-0.075-0.114-0.053-0.201-0.124-0.261-0.214-0.061-0.092-0.091-0.198-0.091-0.317 0-0.108 0.025-0.206 0.075-0.293 0.053-0.090 0.137-0.161 0.253-0.214 0.119-0.055 0.277-0.083 0.475-0.083h0.717v0.21h-0.709c-0.201 0-0.34 0.036-0.42 0.107-0.077 0.071-0.115 0.16-0.115 0.265 0 0.119 0.046 0.214 0.139 0.285s0.222 0.107 0.388 0.107c0.158 0 0.294-0.036 0.408-0.107 0.116-0.074 0.201-0.179 0.253-0.317l0.063 0.194c-0.053 0.137-0.145 0.247-0.277 0.329-0.129 0.082-0.293 0.123-0.491 0.123zM12.376 30.37c-0.179 0-0.342-0.041-0.487-0.123-0.145-0.084-0.261-0.205-0.348-0.36-0.084-0.158-0.127-0.351-0.127-0.578s0.042-0.418 0.127-0.574c0.084-0.158 0.199-0.278 0.344-0.36s0.309-0.123 0.491-0.123c0.198 0 0.375 0.045 0.53 0.135 0.158 0.087 0.282 0.211 0.372 0.372 0.090 0.158 0.135 0.342 0.135 0.55 0 0.211-0.045 0.396-0.135 0.554s-0.214 0.282-0.372 0.372c-0.156 0.090-0.333 0.135-0.53 0.135zM11.303 31.119v-2.846h0.269v0.625l-0.028 0.416 0.040 0.42v1.386h-0.281zM12.356 30.121c0.148 0 0.28-0.033 0.396-0.099 0.116-0.069 0.209-0.164 0.277-0.285 0.069-0.124 0.103-0.267 0.103-0.428s-0.034-0.302-0.103-0.424c-0.069-0.121-0.161-0.216-0.277-0.285s-0.248-0.103-0.396-0.103c-0.148 0-0.281 0.034-0.4 0.103-0.116 0.069-0.209 0.164-0.277 0.285-0.066 0.121-0.099 0.263-0.099 0.424s0.033 0.303 0.099 0.428c0.069 0.121 0.161 0.216 0.277 0.285 0.119 0.066 0.252 0.099 0.4 0.099zM14.335 30.351v-1.908l0.071 0.075h-0.859v-0.245h1.857v0.245h-0.859l0.071-0.075v1.908h-0.281zM15.83 28.684c-0.058 0-0.108-0.021-0.15-0.063-0.040-0.042-0.059-0.094-0.059-0.154 0-0.063 0.020-0.115 0.059-0.154 0.042-0.040 0.092-0.059 0.15-0.059s0.107 0.020 0.146 0.059c0.042 0.040 0.063 0.091 0.063 0.154 0 0.061-0.021 0.112-0.063 0.154-0.040 0.042-0.088 0.063-0.146 0.063zM15.83 30.37c-0.058 0-0.108-0.021-0.15-0.063-0.040-0.042-0.059-0.094-0.059-0.154 0-0.063 0.020-0.115 0.059-0.154 0.042-0.040 0.092-0.059 0.15-0.059s0.107 0.020 0.146 0.059c0.042 0.040 0.063 0.091 0.063 0.154 0 0.061-0.021 0.112-0.063 0.154-0.040 0.042-0.088 0.063-0.146 0.063zM18.596 30.374c-0.214 0-0.404-0.055-0.57-0.166-0.166-0.113-0.297-0.274-0.392-0.483-0.095-0.211-0.142-0.465-0.142-0.76s0.047-0.548 0.142-0.756c0.095-0.211 0.226-0.372 0.392-0.483 0.166-0.113 0.356-0.17 0.57-0.17s0.404 0.057 0.57 0.17c0.166 0.111 0.297 0.272 0.392 0.483 0.098 0.209 0.146 0.461 0.146 0.756s-0.049 0.549-0.146 0.76c-0.095 0.209-0.226 0.369-0.392 0.483-0.166 0.111-0.356 0.166-0.57 0.166zM18.596 30.113c0.164 0 0.306-0.044 0.428-0.131 0.121-0.090 0.216-0.219 0.285-0.388 0.069-0.172 0.103-0.381 0.103-0.629s-0.034-0.457-0.103-0.625c-0.069-0.172-0.164-0.301-0.285-0.388-0.121-0.090-0.264-0.135-0.428-0.135-0.158 0-0.3 0.045-0.424 0.135-0.124 0.087-0.22 0.216-0.289 0.388-0.069 0.169-0.103 0.377-0.103 0.625s0.034 0.458 0.103 0.629c0.069 0.169 0.165 0.298 0.289 0.388 0.124 0.087 0.265 0.131 0.424 0.131zM20.061 30.351v-0.202l1.152-1.128c0.106-0.103 0.185-0.193 0.238-0.269 0.053-0.079 0.088-0.153 0.107-0.222s0.028-0.133 0.028-0.194c0-0.161-0.055-0.288-0.166-0.38-0.108-0.092-0.269-0.139-0.483-0.139-0.164 0-0.309 0.025-0.435 0.075-0.124 0.050-0.231 0.128-0.321 0.234l-0.202-0.174c0.108-0.127 0.247-0.224 0.416-0.293s0.358-0.103 0.566-0.103c0.187 0 0.35 0.030 0.487 0.091 0.137 0.058 0.243 0.144 0.317 0.257 0.077 0.113 0.115 0.247 0.115 0.4 0 0.090-0.013 0.178-0.040 0.265-0.024 0.087-0.069 0.179-0.135 0.277-0.063 0.095-0.157 0.203-0.281 0.325l-1.057 1.037-0.079-0.111h1.718v0.253h-1.944zM22.615 30.37c-0.058 0-0.108-0.021-0.15-0.063-0.040-0.042-0.059-0.094-0.059-0.154 0-0.063 0.020-0.115 0.059-0.154 0.042-0.040 0.092-0.059 0.15-0.059s0.107 0.020 0.146 0.059c0.042 0.040 0.063 0.091 0.063 0.154 0 0.061-0.021 0.112-0.063 0.154-0.040 0.042-0.088 0.063-0.146 0.063zM23.677 30.351v-2.652l0.127 0.135h-0.78v-0.253h0.938v2.771h-0.285zM25.107 30.351v-2.652l0.127 0.135h-0.78v-0.253h0.938v2.771h-0.285z"></path>
</symbol>
<symbol id="icon-courses-icon-2" viewBox="0 0 31 32">
<path stroke-linejoin="miter" stroke-linecap="butt" stroke-miterlimit="4" stroke-width="0.3299" d="M24.567 14.351c0 5.102-4.136 9.237-9.237 9.237s-9.237-4.136-9.237-9.237c0-5.102 4.136-9.237 9.237-9.237s9.237 4.136 9.237 9.237z"></path>
<path d="M14.698 17.202c-0.396 0-0.773-0.063-1.132-0.19-0.359-0.132-0.644-0.306-0.855-0.523l0.277-0.451c0.174 0.185 0.412 0.338 0.713 0.459 0.306 0.121 0.636 0.182 0.99 0.182 0.47 0 0.826-0.103 1.069-0.309 0.248-0.211 0.372-0.486 0.372-0.823 0-0.238-0.058-0.441-0.174-0.61-0.111-0.174-0.301-0.309-0.57-0.404s-0.639-0.143-1.108-0.143h-1.18l0.285-2.779h3.032v0.507h-2.803l0.293-0.277-0.245 2.328-0.293-0.285h1.037c0.559 0 1.008 0.069 1.346 0.206s0.581 0.33 0.728 0.578c0.153 0.243 0.23 0.528 0.23 0.855 0 0.311-0.074 0.596-0.222 0.855-0.148 0.253-0.369 0.454-0.665 0.602s-0.67 0.222-1.124 0.222z"></path>
<path d="M3.969 14.369l-1.958-0.238 0.105-0.865c0.027-0.221 0.090-0.39 0.19-0.507 0.1-0.119 0.232-0.169 0.396-0.149 0.159 0.019 0.275 0.095 0.347 0.228 0.070 0.132 0.093 0.298 0.068 0.496l-0.072-0.062c0.028-0.234 0.093-0.4 0.193-0.499s0.232-0.138 0.397-0.118c0.169 0.021 0.293 0.099 0.373 0.234 0.077 0.133 0.1 0.329 0.069 0.587l-0.108 0.891zM3.791 14.086l0.076-0.623c0.020-0.167 0.009-0.295-0.033-0.386-0.044-0.094-0.126-0.148-0.245-0.162s-0.211 0.013-0.275 0.084c-0.064 0.070-0.106 0.189-0.126 0.356l-0.079 0.649 0.682 0.083zM2.911 13.979l0.072-0.589c0.018-0.152 0.004-0.271-0.044-0.357-0.047-0.089-0.126-0.14-0.235-0.153s-0.196 0.018-0.261 0.093c-0.064 0.073-0.106 0.185-0.124 0.337l-0.072 0.589 0.664 0.081z"></path>
<path d="M4.599 11.351l-1.844-0.699 0.095-0.249 1.844 0.699-0.095 0.249zM2.395 10.371c-0.020 0.052-0.054 0.088-0.102 0.11s-0.097 0.023-0.146 0.005-0.083-0.052-0.103-0.099c-0.022-0.048-0.023-0.098-0.003-0.15s0.052-0.089 0.098-0.111 0.094-0.025 0.143-0.006c0.052 0.020 0.088 0.054 0.11 0.102 0.023 0.046 0.024 0.096 0.003 0.15z"></path>
<path d="M5.254 9.678l-0.178-0.146c0.012-0.013 0.024-0.024 0.037-0.034 0.012-0.013 0.022-0.025 0.029-0.035 0.046-0.066 0.057-0.136 0.035-0.209-0.021-0.075-0.066-0.152-0.134-0.229s-0.151-0.156-0.248-0.235c-0.099-0.081-0.2-0.161-0.3-0.239l-0.559-0.427 0.822-1.19 1.623 1.12-0.152 0.22-1.496-1.033 0.103-0.011-0.61 0.884-0.032-0.1 0.453 0.349c0.136 0.103 0.262 0.207 0.378 0.311 0.118 0.103 0.214 0.204 0.288 0.304 0.076 0.098 0.122 0.194 0.139 0.288 0.015 0.093-0.007 0.182-0.067 0.269-0.017 0.025-0.037 0.049-0.060 0.073-0.021 0.022-0.045 0.045-0.071 0.070z"></path>
<path d="M7.235 5.357c0.187-0.163 0.364-0.246 0.531-0.25 0.169-0.006 0.321 0.067 0.455 0.219 0.139 0.157 0.194 0.325 0.164 0.502-0.028 0.176-0.142 0.35-0.34 0.522l-0.599 0.525-1.308-1.476 0.2-0.177 0.456 0.515 0.441-0.38zM7.899 6.208c0.139-0.119 0.218-0.238 0.237-0.356 0.020-0.121-0.019-0.237-0.117-0.348s-0.204-0.16-0.318-0.15c-0.116 0.009-0.244 0.074-0.384 0.195l-0.39 0.336 0.583 0.658 0.39-0.336z"></path>
<path d="M9.218 5.425l-0.917-1.746 0.236-0.124 0.405 0.772 1.101-0.578-0.405-0.772 0.236-0.124 0.917 1.746-0.236 0.124-0.405-0.772-1.101 0.578 0.405 0.772-0.236 0.124z"></path>
<path d="M11.703 4.215l-0.472-1.915 0.259-0.064 0.375 1.521 0.905-1.837 0.23-0.057 0.472 1.915-0.259 0.064-0.376-1.525-0.901 1.839-0.233 0.058z"></path>
<path d="M14.537 3.629l0.834-1.082-0.004 0.131-0.793-1.022h0.301l0.65 0.845-0.113-0.004 0.65-0.841h0.293l-0.8 1.033 0.004-0.143 0.841 1.082h-0.304l-0.687-0.902 0.105 0.015-0.676 0.887h-0.301z"></path>
<path d="M19.953 4.485l0.917-1.746 0.239 0.126 0.088 1.756-0.1-0.052 1.509-0.918 0.22 0.115-0.917 1.746-0.216-0.114 0.775-1.477 0.033 0.043-1.405 0.85-0.106-0.056-0.099-1.655 0.055 0.016-0.777 1.48-0.216-0.114z"></path>
<path d="M22.894 6.325l1.308-1.476 0.2 0.177-1.308 1.476-0.2-0.177zM24.592 4.612c-0.041-0.037-0.063-0.081-0.067-0.134s0.013-0.099 0.047-0.139c0.035-0.039 0.078-0.060 0.129-0.061 0.053-0.003 0.1 0.013 0.141 0.050s0.064 0.080 0.069 0.132-0.010 0.096-0.045 0.136c-0.037 0.041-0.081 0.063-0.134 0.067-0.051 0.005-0.098-0.012-0.141-0.050z"></path>
<path d="M25.12 8.864c-0.111-0.161-0.176-0.329-0.194-0.505-0.015-0.175 0.015-0.342 0.089-0.5 0.076-0.159 0.194-0.294 0.355-0.405 0.163-0.112 0.331-0.175 0.504-0.188s0.339 0.019 0.495 0.096c0.158 0.079 0.293 0.2 0.404 0.36 0.095 0.138 0.155 0.281 0.178 0.43s0.003 0.291-0.060 0.429l-0.224-0.087c0.044-0.113 0.057-0.224 0.039-0.333s-0.060-0.213-0.127-0.309c-0.080-0.115-0.178-0.201-0.296-0.257-0.116-0.057-0.239-0.080-0.371-0.068s-0.262 0.062-0.389 0.15-0.221 0.192-0.278 0.311c-0.058 0.119-0.082 0.243-0.071 0.373 0.012 0.128 0.059 0.25 0.138 0.366 0.067 0.097 0.148 0.173 0.244 0.228s0.203 0.083 0.322 0.083l0.002 0.241c-0.149 0.009-0.29-0.023-0.423-0.096-0.13-0.074-0.243-0.181-0.339-0.319z"></path>
<path d="M25.959 10.283l1.844-0.699 0.095 0.249-1.626 0.617 0.428 1.128 1.626-0.617 0.095 0.249-1.844 0.699-0.617-1.626zM26.154 12.142l0.467-0.177 0.003 0.071-0.143-0.376 0.218-0.083 0.208 0.548-0.664 0.252-0.089-0.235z"></path>
<path d="M28.227 13.93c0.027 0.246-0.005 0.44-0.096 0.579-0.091 0.142-0.238 0.226-0.439 0.25-0.209 0.025-0.378-0.025-0.506-0.15-0.128-0.123-0.207-0.315-0.237-0.577l-0.092-0.791 1.958-0.238 0.032 0.265-0.682 0.083 0.063 0.579zM27.149 13.992c0.020 0.182 0.072 0.314 0.158 0.397 0.089 0.085 0.206 0.119 0.353 0.101s0.248-0.077 0.304-0.177c0.058-0.1 0.078-0.243 0.058-0.427l-0.055-0.512-0.873 0.106 0.055 0.512z"></path>
<path d="M5.627 30.374c-0.208 0-0.401-0.034-0.578-0.103-0.177-0.071-0.33-0.17-0.459-0.297s-0.231-0.276-0.305-0.447c-0.071-0.172-0.107-0.359-0.107-0.562s0.036-0.391 0.107-0.562c0.074-0.172 0.176-0.321 0.305-0.447 0.132-0.127 0.286-0.224 0.463-0.293 0.177-0.071 0.37-0.107 0.578-0.107 0.201 0 0.389 0.034 0.566 0.103 0.177 0.066 0.326 0.166 0.447 0.301l-0.186 0.186c-0.114-0.116-0.239-0.199-0.376-0.249-0.137-0.053-0.285-0.079-0.443-0.079-0.166 0-0.321 0.029-0.463 0.087-0.143 0.055-0.267 0.136-0.372 0.241-0.106 0.103-0.189 0.224-0.249 0.364-0.058 0.137-0.087 0.289-0.087 0.455s0.029 0.319 0.087 0.459c0.061 0.137 0.144 0.259 0.249 0.364 0.106 0.103 0.23 0.183 0.372 0.241 0.143 0.055 0.297 0.083 0.463 0.083 0.158 0 0.306-0.026 0.443-0.079s0.263-0.137 0.376-0.253l0.186 0.186c-0.121 0.135-0.271 0.236-0.447 0.305s-0.367 0.103-0.57 0.103zM7.52 30.351v-1.908l0.071 0.075h-0.859v-0.245h1.857v0.245h-0.859l0.071-0.075v1.908h-0.281zM10.285 30.351v-0.459l-0.012-0.075v-0.768c0-0.177-0.050-0.313-0.15-0.408-0.098-0.095-0.244-0.142-0.439-0.142-0.135 0-0.263 0.022-0.384 0.067s-0.224 0.104-0.309 0.178l-0.127-0.21c0.106-0.090 0.232-0.158 0.38-0.206 0.148-0.050 0.303-0.075 0.467-0.075 0.269 0 0.476 0.067 0.622 0.202 0.148 0.132 0.222 0.334 0.222 0.606v1.291h-0.269zM9.569 30.37c-0.156 0-0.292-0.025-0.408-0.075-0.114-0.053-0.201-0.124-0.261-0.214-0.061-0.092-0.091-0.198-0.091-0.317 0-0.108 0.025-0.206 0.075-0.293 0.053-0.090 0.137-0.161 0.253-0.214 0.119-0.055 0.277-0.083 0.475-0.083h0.717v0.21h-0.709c-0.201 0-0.34 0.036-0.42 0.107-0.077 0.071-0.115 0.16-0.115 0.265 0 0.119 0.046 0.214 0.139 0.285s0.222 0.107 0.388 0.107c0.158 0 0.294-0.036 0.408-0.107 0.116-0.074 0.201-0.179 0.253-0.317l0.063 0.194c-0.053 0.137-0.145 0.247-0.277 0.329-0.129 0.082-0.293 0.123-0.491 0.123zM12.376 30.37c-0.179 0-0.342-0.041-0.487-0.123-0.145-0.084-0.261-0.205-0.348-0.36-0.084-0.158-0.127-0.351-0.127-0.578s0.042-0.418 0.127-0.574c0.084-0.158 0.199-0.278 0.344-0.36s0.309-0.123 0.491-0.123c0.198 0 0.375 0.045 0.53 0.135 0.158 0.087 0.282 0.211 0.372 0.372 0.090 0.158 0.135 0.342 0.135 0.55 0 0.211-0.045 0.396-0.135 0.554s-0.214 0.282-0.372 0.372c-0.156 0.090-0.333 0.135-0.53 0.135zM11.303 31.119v-2.846h0.269v0.625l-0.028 0.416 0.040 0.42v1.386h-0.281zM12.356 30.121c0.148 0 0.28-0.033 0.396-0.099 0.116-0.069 0.209-0.164 0.277-0.285 0.069-0.124 0.103-0.267 0.103-0.428s-0.034-0.302-0.103-0.424c-0.069-0.121-0.161-0.216-0.277-0.285s-0.248-0.103-0.396-0.103c-0.148 0-0.281 0.034-0.4 0.103-0.116 0.069-0.209 0.164-0.277 0.285-0.066 0.121-0.099 0.263-0.099 0.424s0.033 0.303 0.099 0.428c0.069 0.121 0.161 0.216 0.277 0.285 0.119 0.066 0.252 0.099 0.4 0.099zM14.335 30.351v-1.908l0.071 0.075h-0.859v-0.245h1.857v0.245h-0.859l0.071-0.075v1.908h-0.281zM15.83 28.684c-0.058 0-0.108-0.021-0.15-0.063-0.040-0.042-0.059-0.094-0.059-0.154 0-0.063 0.020-0.115 0.059-0.154 0.042-0.040 0.092-0.059 0.15-0.059s0.107 0.020 0.146 0.059c0.042 0.040 0.063 0.091 0.063 0.154 0 0.061-0.021 0.112-0.063 0.154-0.040 0.042-0.088 0.063-0.146 0.063zM15.83 30.37c-0.058 0-0.108-0.021-0.15-0.063-0.040-0.042-0.059-0.094-0.059-0.154 0-0.063 0.020-0.115 0.059-0.154 0.042-0.040 0.092-0.059 0.15-0.059s0.107 0.020 0.146 0.059c0.042 0.040 0.063 0.091 0.063 0.154 0 0.061-0.021 0.112-0.063 0.154-0.040 0.042-0.088 0.063-0.146 0.063zM18.596 30.374c-0.214 0-0.404-0.055-0.57-0.166-0.166-0.113-0.297-0.274-0.392-0.483-0.095-0.211-0.142-0.465-0.142-0.76s0.047-0.548 0.142-0.756c0.095-0.211 0.226-0.372 0.392-0.483 0.166-0.113 0.356-0.17 0.57-0.17s0.404 0.057 0.57 0.17c0.166 0.111 0.297 0.272 0.392 0.483 0.098 0.209 0.146 0.461 0.146 0.756s-0.049 0.549-0.146 0.76c-0.095 0.209-0.226 0.369-0.392 0.483-0.166 0.111-0.356 0.166-0.57 0.166zM18.596 30.113c0.164 0 0.306-0.044 0.428-0.131 0.121-0.090 0.216-0.219 0.285-0.388 0.069-0.172 0.103-0.381 0.103-0.629s-0.034-0.457-0.103-0.625c-0.069-0.172-0.164-0.301-0.285-0.388-0.121-0.090-0.264-0.135-0.428-0.135-0.158 0-0.3 0.045-0.424 0.135-0.124 0.087-0.22 0.216-0.289 0.388-0.069 0.169-0.103 0.377-0.103 0.625s0.034 0.458 0.103 0.629c0.069 0.169 0.165 0.298 0.289 0.388 0.124 0.087 0.265 0.131 0.424 0.131zM20.061 30.351v-0.202l1.152-1.128c0.106-0.103 0.185-0.193 0.238-0.269 0.053-0.079 0.088-0.153 0.107-0.222s0.028-0.133 0.028-0.194c0-0.161-0.055-0.288-0.166-0.38-0.108-0.092-0.269-0.139-0.483-0.139-0.164 0-0.309 0.025-0.435 0.075-0.124 0.050-0.231 0.128-0.321 0.234l-0.202-0.174c0.108-0.127 0.247-0.224 0.416-0.293s0.358-0.103 0.566-0.103c0.187 0 0.35 0.030 0.487 0.091 0.137 0.058 0.243 0.144 0.317 0.257 0.077 0.113 0.115 0.247 0.115 0.4 0 0.090-0.013 0.178-0.040 0.265-0.024 0.087-0.069 0.179-0.135 0.277-0.063 0.095-0.157 0.203-0.281 0.325l-1.057 1.037-0.079-0.111h1.718v0.253h-1.944zM22.615 30.37c-0.058 0-0.108-0.021-0.15-0.063-0.040-0.042-0.059-0.094-0.059-0.154 0-0.063 0.020-0.115 0.059-0.154 0.042-0.040 0.092-0.059 0.15-0.059s0.107 0.020 0.146 0.059c0.042 0.040 0.063 0.091 0.063 0.154 0 0.061-0.021 0.112-0.063 0.154-0.040 0.042-0.088 0.063-0.146 0.063zM23.677 30.351v-2.652l0.127 0.135h-0.78v-0.253h0.938v2.771h-0.285zM25.107 30.351v-2.652l0.127 0.135h-0.78v-0.253h0.938v2.771h-0.285z"></path>
</symbol>
<symbol id="icon-facebook" viewBox="0 0 32 32">
<path d="M29.333 16c0-7.36-5.973-13.333-13.333-13.333s-13.333 5.973-13.333 13.333c0 6.453 4.587 11.827 10.667 13.067v-9.067h-2.667v-4h2.667v-3.333c0-2.573 2.093-4.667 4.667-4.667h3.333v4h-2.667c-0.733 0-1.333 0.6-1.333 1.333v2.667h4v4h-4v9.267c6.733-0.667 12-6.347 12-13.267z"></path>
</symbol>
<symbol id="icon-burger" viewBox="0 0 32 32">
<path stroke-linejoin="round" stroke-linecap="round" stroke-miterlimit="4" stroke-width="2.6667" d="M4 8h24M4 16h24M4 24h24"></path>
</symbol>
<symbol id="icon-youtube" viewBox="0 0 32 32">
<path d="M13.333 20l6.92-4-6.92-4v8zM28.747 9.56c0.173 0.627 0.293 1.467 0.373 2.533 0.093 1.067 0.133 1.987 0.133 2.787l0.080 1.12c0 2.92-0.213 5.067-0.587 6.44-0.333 1.2-1.107 1.973-2.307 2.307-0.627 0.173-1.773 0.293-3.533 0.373-1.733 0.093-3.32 0.133-4.787 0.133l-2.12 0.080c-5.587 0-9.067-0.213-10.44-0.587-1.2-0.333-1.973-1.107-2.307-2.307-0.173-0.627-0.293-1.467-0.373-2.533-0.093-1.067-0.133-1.987-0.133-2.787l-0.080-1.12c0-2.92 0.213-5.067 0.587-6.44 0.333-1.2 1.107-1.973 2.307-2.307 0.627-0.173 1.773-0.293 3.533-0.373 1.733-0.093 3.32-0.133 4.787-0.133l2.12-0.080c5.587 0 9.067 0.213 10.44 0.587 1.2 0.333 1.973 1.107 2.307 2.307z"></path>
</symbol>
<symbol id="icon-news-one" viewBox="0 0 24 32">
<path stroke-linejoin="miter" stroke-linecap="square" stroke-miterlimit="4" stroke-width="12" d="M10.070 21.949l4-12"></path>
</symbol>
<symbol id="icon-line-two" viewBox="0 0 45 32">
<path stroke-linejoin="miter" stroke-linecap="butt" stroke-miterlimit="4" stroke-width="0.4199" d="M45.060 14.278c0 0-3.038 8.649-14.74 12.934-11.791 4.318-28.081-6.346-29.774-10.835-0.84-2.226-0.1-5.878 3.999-6.62 2.133-0.386 3.345 2.113 4.4 5.151M8.944 14.908c1.504 4.331 2.687 9.755 5.764 9.464 4.234-0.4 7.686-2.678 7.966-6.922 0.375-5.684-13.729-6.458-12.856-12.087 1.112-7.166 15.264-6.455 18.57 0 2.97 5.799-0.82 14.39-7.307 14.999-3.278 0.308-8.124-0.747-9.505-3.736-1.832-3.967 4.201-8.362 8.571-8.351 5.1 0.013 3.408 10.459 8.241 12.087 6.601 2.223 20.083-8.399 14.175-12.087-3.899-2.434-8.433-1.968-11.702 1.264-5.247 5.186 15.958 7.123 13.79 14.175-2.256 7.336-12.103-7.087-19.614 1.264s-23.153 11.587-18.318-5.827c0.675-1.753 1.134-2.695 2.225-4.241z"></path>
</symbol>
<symbol id="icon-line-one" viewBox="0 0 47 32">
<path stroke-linejoin="miter" stroke-linecap="round" stroke-miterlimit="4" stroke-width="0.4482" d="M25.994 31.597c-2.824-3.854-15.6-4.076-13.294-10.324 0.987-2.674 3.905-2.632 5.101-5.218 1.963-4.244 2.010-9.076-1.759-11.844-5.006-3.677-10.946 3.158-13.134 8.971-2.481 6.589 0.112 13.336 6.157 16.945 7.324 4.373 14.824-0.912 20.639-7.153 3.386-3.634 1.012-10.013 5.805-11.316 4.418-1.201 8.437 1.307 10.378 5.453 2.549 5.444-1.313 12.015-7.095 13.662-3.92 1.117-6.791-0.144-10.144-2.463-6.718-4.647-10.544-16.676-3.401-20.639 4.284-2.376 7.872 2.81 12.489 1.173 6.949-2.465-14.575-13.038-17.766-6.391-1.838 3.828-1.969 6.025-3.928 9.792-3.252 6.251-15.819-1.666-15.819-1.666"></path>
</symbol>
<symbol id="icon-stripe" viewBox="0 0 76 32">
<path stroke-linejoin="miter" stroke-linecap="round" stroke-miterlimit="4" stroke-width="0.796" d="M0.478 18.308c2.567 3.12 5.088 4.624 7.562 5.12 1.313 0.263 2.613 0.242 3.901 0.029 3.323-0.552 6.56-2.391 9.711-3.955 10.137-5.032 12.012 13.864 23.164 11.94 7.797-1.345 6.607-10.109 15.443-9.154s8.756-2.229 9.313-3.582M69.572 8.756c-1.194-6.129 8.454-4.702 5.493-8.279"></path>
</symbol>
</defs>
</svg>
